<?xml version="1.0" encoding="UTF-8"?>
<svg id="Camada_1" data-name="Camada 1" xmlns="http://www.w3.org/2000/svg" viewBox="0 0 154.08 67.3">
  <defs>
    <style>
      .cls-1 {
        fill: #fff;
      }
    </style>
  </defs>
  <path class="cls-1" d="M31.44,34.74c-1.7-.43-3.67.77-3.98,2.51-.23,1.27.19,2.55.96,3.55-.39.12-.76.33-1.06.6-.91.82-.98,2.08-.64,3.18.21.69,1.29.4,1.08-.29-.22-.73-.28-1.57.35-2.11.36-.31.85-.46,1.32-.36.07.05.14.1.21.15.78.51,1.66.85,2.5,1.23,1.04.48,2.03,1.02,2.91,1.77.55.46,1.34-.33.79-.79-1.4-1.18-3-1.83-4.62-2.61-1.47-.71-2.72-1.85-2.74-3.62-.01-.92.46-1.55,1.27-1.96.73-.37,1.47-.22,2.15.17,1.19.69,2.13,2.12,3.53,2.42.7.15,1-.93.29-1.08-.79-.16-1.48-.92-2.07-1.43-.66-.56-1.39-1.11-2.25-1.33"/>
  <path class="cls-1" d="M31.31,47.09c-1.69-.78-3.59-.03-5.27-.88-1.66-.84-1.88-2.47-1.3-4.11.24-.68-.84-.97-1.08-.29-.64,1.83-.42,3.81,1.24,5.01.76.55,1.69.85,2.62.96,1.07.13,2.22-.18,3.24.28.65.3,1.21-.67.56-.97"/>
  <path class="cls-1" d="M29.06,29.13c.62.04,1.16.21,1.45.8.2.4.31.88.21,1.32-.3,1.27-1.99,1.45-3.05,1.46-.72,0-.73,1.13,0,1.12,1.34-.02,2.91-.28,3.74-1.45,1.08.52,2.34.45,3.22-.5.93-1.02,1.06-2.57.47-3.79-.43-.89-1.26-1.47-1.77-2.3-.4-.65-.68-1.42-.52-2.18.26-1.25,1.6-1.78,2.73-1.4.68.23.97-.85.29-1.08-1.17-.39-2.5-.11-3.36.79-1.01,1.07-1,2.59-.41,3.87.67,1.47,2.57,2.47,2.24,4.28-.1.56-.43,1.13-.96,1.39-.52.26-1.05.13-1.52-.12.13-.79-.09-1.64-.55-2.29-.87-1.24-2.45-1.04-3.77-1.01-1.55.03-2.89-.64-2.92-2.35-.01-.72-1.13-.73-1.12,0,.02,1.23.55,2.38,1.66,2.99,1.25.69,2.57.37,3.92.45"/>
  <path class="cls-1" d="M57.34,34.51c-.23-2.22-.83-4.49-2.3-6.21.22-1.78.09-3.51-.67-5.16-.69-1.51-1.87-3.04-3.4-3.78-.33-1.18-.8-2.36-1.73-3.19-.94-.84-2.28-1.46-3.56-1.42-1.38-1.33-3.82-1.62-5.44-.6-1.76,1.11-2.22,3.2-1.96,5.13-.08.14-.16.28-.22.42-.07-.14-.14-.28-.22-.42.25-1.94-.2-4.03-1.97-5.14-1.62-1.01-4.05-.72-5.43.6-1.29-.04-2.63.59-3.57,1.43-.93.84-1.4,2.01-1.73,3.19-1.56.75-2.75,2.32-3.44,3.85-.73,1.63-.83,3.33-.63,5.08-1.27,1.49-1.87,3.37-2.18,5.29-.41,2.53-.09,4.97.99,7.3.25.54.61,1.01.66,1.6.05.55.14,1.1.28,1.63.3,1.11.8,2.17,1.46,3.11.64.91,1.42,1.71,2.32,2.38.43.32.88.6,1.36.84.47.23,1.12.35,1.51.65.26.2.45.51.7.73.24.22.51.43.78.61.5.35,1.05.61,1.61.81,1.1.4,2.28.5,3.44.52.05,0,.1,0,.15,0,.07,0,.12-.01.18-.03,2.58-.41,3.53-2.68,3.7-5.02.16,2.32,1.25,4.62,3.74,5.02.05.02.11.03.17.03.06,0,.11,0,.17,0,2.16-.03,4.28-.49,5.9-2.01.21-.2.4-.49.62-.66.18-.14.42-.18.64-.27.55-.21,1.07-.46,1.57-.77.95-.59,1.81-1.34,2.51-2.21.7-.87,1.26-1.83,1.65-2.87.2-.52.35-1.07.44-1.62.1-.59.08-1.11.36-1.64,1.19-2.23,1.79-4.65,1.52-7.18M36.92,49.12c-.13,1.13-.55,2.35-1.51,3.03-.37.26-.8.43-1.25.49-1.51,0-3.04-.18-4.36-.99-.36-.22-.69-.48-.99-.77-.11-.11-.22-.25-.33-.38.99-.8,2.76.5,3.73.88.66.25,1.35.38,2.01.08.82-.37,1.3-1.24.98-2.12-.24-.67-1.33-.39-1.08.29.29.79-.64.98-1.22.81-.69-.2-1.32-.57-1.97-.85-1.22-.52-2.47-.69-3.37.26-.65-.26-1.28-.47-1.89-.87-1.35-.87-2.44-2.12-3.16-3.56-.36-.72-.62-1.5-.77-2.29-.07-.39-.05-.78-.11-1.17.07-.91.33-2.05,1.32-2.35.81-.26,1.72.17,2.35.67.56.44,1.35-.35.79-.79-.25-.2-.51-.38-.8-.53.72-.82,1.12-1.87.91-2.99-.21-1.14-1.06-2.08-2.17-2.39-.69-.2-.99.88-.29,1.08.74.21,1.27.84,1.39,1.6.14.9-.33,1.67-.96,2.26-.53-.12-1.07-.13-1.61.06-.88.3-1.4.97-1.7,1.76-1.37-3.06-1.41-6.73.06-9.78.16-.33.35-.65.56-.96.22.44.5.84.83,1.16-2,1.17-2.02,4.63-.43,6.18.51.5,1.3-.29.79-.79-1.2-1.16-1.18-4.16.74-4.62.76.35,1.65.42,2.61.13.69-.21.4-1.29-.29-1.08-1.77.54-3.07-.55-3.53-2.22-.03-.52-.11-1.03-.11-1.55,0-1.68.52-3.24,1.52-4.59.26-.35.55-.69.87-1-.04.47.03.94.26,1.41.32.64,1.28.08.96-.57-.39-.78.15-1.77.71-2.32.51-.5,1.17-.85,1.88-.95.7-.1,2.37.09,2.16,1.16-.3,1.48-2.4,1.75-3.28,2.76-.68.79-.96,1.98-.39,2.91.82,1.36,2.54,1.09,3.78.56.66-.28.09-1.24-.57-.96-.91.39-2.63.51-2.38-.97.1-.59.53-.99,1.02-1.28.74-.43,1.54-.8,2.14-1.43.89-.95,1.16-2.36.04-3.24-1.07-.84-2.63-.79-3.82-.27-.06.02-.11.05-.17.08.6-1.08,1.6-1.83,2.86-2.12.33-.08.67-.03.99-.07.93.02,1.58.42,2.39.82.63.31,1.24.37,1.85,0,.61-.37.05-1.34-.57-.96-.48.29-.9-.11-1.33-.33-.3-.16-.61-.3-.93-.4.54-.24,1.15-.36,1.73-.35,1.29.04,2.36.91,2.77,2.11.17.5.23,1.02.23,1.54-.99-.58-2.25-.65-3.22.05-.58.41-.02,1.38.57.96.91-.65,2.02-.32,2.72.48.06.12.13.24.21.39.22.45.35.96.4,1.46.02.17.03.34.03.51,0,.1,0,.19,0,.29-.02.7-.15,1.4-.35,2.08-.03.09-.06.19-.1.29-.52-.45-1.17-.72-1.92-.73-.72,0-.73,1.11,0,1.12.72,0,1.25.38,1.64.97.09.3.26.63.34.88.22.72.37,1.49.4,2.26,0,.22,0,.43,0,.65-.03.74-.16,1.48-.43,2.17-.04.11-.09.21-.14.31-.05.04-.09.09-.12.16-.4.74-.91,1.39-1.72,1.69-.67.25-.39,1.33.29,1.08.71-.26,1.28-.68,1.73-1.23.02.05.03.1.04.15.2.77.33,1.57.34,2.37,0,.18,0,.36,0,.55-.01.78-.08,1.57-.33,2.3-.06.19-.19.39-.27.59-1.72,1.88-4.35-1-5.38-2.34-.43-.56-1.4,0-.96.57,1.08,1.4,2.47,2.99,4.28,3.4.82.18,1.64.05,2.31-.38.32,1.19.33,2.56.11,3.76-.06.32-.23.64-.33.95-.34.53-.79,1.02-1.44,1.03-.74.01-1.55-.45-2.14-.87-.98-.7-1.72-1.84-2.93-2.15-.7-.18-.99.9-.29,1.08.63.16,1.09.69,1.55,1.12.64.59,1.32,1.14,2.12,1.49.75.33,1.59.59,2.41.33.29-.09.54-.24.77-.41,0,.05,0,.09,0,.14.01.43,0,.86-.05,1.28M55.97,38.35c-.18.68-.42,1.34-.71,1.98-.3-.79-.83-1.46-1.7-1.76-.54-.18-1.09-.18-1.61-.06-.63-.59-1.1-1.35-.96-2.26.12-.76.64-1.4,1.38-1.6.69-.2.4-1.27-.29-1.08-1.12.31-1.96,1.25-2.17,2.39-.21,1.12.19,2.18.91,3-.28.16-.55.34-.8.54-.56.44.24,1.23.79.79.63-.5,1.53-.91,2.35-.66.98.3,1.25,1.43,1.32,2.34-.07.39-.04.79-.11,1.18-.29,1.61-1.05,3.11-2.15,4.32-.53.59-1.12,1.11-1.79,1.53-.61.39-1.24.61-1.89.87-.91-.95-2.16-.78-3.38-.26-.63.27-1.24.63-1.91.83-.57.17-1.58.04-1.28-.79.25-.68-.83-.97-1.08-.3-.31.85.13,1.7.92,2.09.68.34,1.4.21,2.07-.05.98-.38,2.75-1.68,3.74-.87-.09.11-.18.22-.27.31-.32.32-.68.6-1.06.84-.65.39-1.36.65-2.1.8-.74.15-1.49.18-2.25.19-.98-.12-1.75-.75-2.21-1.6-.57-1.05-.61-2.17-.56-3.31.2.15.42.28.67.36.83.3,1.7.03,2.47-.31.78-.35,1.45-.87,2.07-1.45.48-.44.94-1,1.6-1.16.7-.18.41-1.26-.29-1.08-1.22.31-1.95,1.46-2.94,2.15-.59.42-1.38.87-2.13.87-.76,0-1.25-.67-1.6-1.29-.1-.24-.15-.51-.19-.76-.11-.63-.12-1.28-.1-1.91.02-.59.07-1.18.22-1.76,2.21,1.59,5.18-1.22,6.52-2.94.43-.56-.35-1.35-.79-.79-1.04,1.34-3.7,4.36-5.46,2.45-.09-.23-.23-.46-.3-.67-.17-.55-.27-1.14-.31-1.74.02-.41.02-.81,0-1.21,0-.02,0-.05,0-.07.05-.73.17-1.45.34-2.11.01-.05.03-.1.05-.16.46.54,1.02.96,1.73,1.22.68.25.97-.83.3-1.08-.82-.3-1.32-.96-1.72-1.69-.03-.06-.07-.11-.12-.15-.06-.13-.13-.26-.18-.4-.28-.75-.37-1.52-.38-2.32-.01-.92.12-1.78.39-2.66.08-.27.27-.6.35-.91.38-.58.91-.94,1.62-.95.72,0,.73-1.12,0-1.12-.75,0-1.4.27-1.92.73-.04-.1-.08-.19-.1-.28-.2-.68-.33-1.38-.35-2.09,0-.08,0-.16,0-.24,0-.18.01-.36.03-.55.05-.46.17-.93.35-1.35.09-.2.19-.36.27-.52.7-.79,1.81-1.11,2.71-.47.59.42,1.14-.55.56-.97-.97-.7-2.23-.62-3.21-.05,0-1.15.32-2.3,1.27-3.04.98-.76,2.35-.76,3.46-.26-.32.1-.63.23-.94.4-.43.23-.85.62-1.33.33-.61-.37-1.17.59-.56.97.62.38,1.23.31,1.85,0,.8-.4,1.45-.8,2.38-.82.32.05.66,0,.99.07.76.17,1.48.52,2.06,1.06.33.31.59.67.81,1.06-1.11-.55-2.52-.65-3.62-.06-1.16.62-1.44,1.91-.73,3,.48.74,1.24,1.21,1.99,1.63.57.31,1.18.59,1.46,1.22.19.43.2.99-.16,1.34-.55.53-1.51.24-2.11-.02-.65-.28-1.22.68-.56.97,1.12.48,2.59.78,3.53-.23.72-.78.69-2,.14-2.86-.8-1.26-2.5-1.4-3.32-2.62-.73-1.08.41-1.7,1.4-1.71.76-.01,1.5.25,2.1.71.7.55,1.45,1.67,1,2.59-.32.64.65,1.2.97.56.23-.47.3-.96.25-1.44.97.89,1.7,2.15,2.07,3.33.23.74.33,1.51.33,2.29,0,.46-.04.91-.09,1.36,0,.06-.01.11-.01.17,0,.01,0,.02-.01.03-.46,1.68-1.76,2.77-3.53,2.23-.69-.21-.98.87-.29,1.08.96.3,1.85.22,2.62-.12,1.93.46,1.93,3.45.74,4.62-.51.5.28,1.29.79.79,1.58-1.54,1.56-5.01-.44-6.17.33-.33.61-.72.83-1.17.66.96,1.04,2.09,1.3,3.22.41,1.83.51,3.72.04,5.55"/>
  <path class="cls-1" d="M46.63,41.83c.47-.09.96.06,1.32.37.63.54.57,1.37.35,2.1-.21.69.87.98,1.08.29.34-1.11.27-2.37-.64-3.19-.3-.27-.67-.48-1.06-.6.77-1,1.19-2.28.96-3.55-.31-1.75-2.27-2.95-3.98-2.52-.86.22-1.59.77-2.25,1.34-.59.5-1.28,1.26-2.07,1.42-.7.15-.41,1.22.29,1.08,1.4-.29,2.34-1.72,3.53-2.42.68-.4,1.42-.54,2.15-.17.81.4,1.28,1.05,1.27,1.95-.03,1.78-1.26,2.91-2.74,3.63-1.62.78-3.22,1.43-4.62,2.61-.55.46.25,1.25.79.79.88-.74,1.87-1.29,2.91-1.76.84-.39,1.72-.72,2.5-1.23.07-.05.14-.09.21-.14"/>
  <path class="cls-1" d="M45.35,48.06c.98-.45,2.08-.16,3.12-.27.97-.1,1.94-.39,2.73-.97,1.65-1.2,1.88-3.17,1.23-5-.24-.67-1.32-.39-1.08.29.57,1.64.35,3.27-1.31,4.11-1.68.85-3.58.1-5.27.88-.65.3-.08,1.26.57.96"/>
  <path class="cls-1" d="M44.69,32.37c.82,1.16,2.4,1.44,3.74,1.45.72,0,.73-1.11,0-1.12-1.01-.01-2.59-.17-3-1.29,0,0,0-.02-.01-.03,0-.03-.02-.06-.03-.09-.13-.46-.01-.96.2-1.38.29-.58.83-.76,1.44-.79,1.33-.08,2.61.23,3.86-.41,1.15-.59,1.71-1.77,1.74-3.02.01-.72-1.11-.73-1.12,0-.03,1.66-1.3,2.38-2.83,2.36-1.35-.02-2.97-.26-3.86,1.01-.46.65-.67,1.5-.54,2.29-.46.25-.97.37-1.47.15-.53-.24-.87-.79-.99-1.35-.15-.68.02-1.38.42-1.94.59-.84,1.37-1.45,1.81-2.41.58-1.26.59-2.75-.38-3.82-.85-.93-2.21-1.23-3.39-.83-.68.23-.39,1.31.29,1.08,1.14-.38,2.47.14,2.74,1.39.16.77-.12,1.54-.52,2.19-.51.83-1.34,1.41-1.77,2.3-.59,1.23-.45,2.76.48,3.79.87.96,2.14,1.02,3.22.5"/>
  <rect class="cls-1" x="78.81" y="20.19" width=".48" height="4.05"/>
  <polygon class="cls-1" points="82.29 20.2 82.9 20.2 85.24 23.56 85.25 23.56 85.25 20.2 85.73 20.2 85.73 24.24 85.13 24.24 82.78 20.88 82.77 20.88 82.77 24.24 82.29 24.24 82.29 20.2"/>
  <path class="cls-1" d="M90.66,20.91c-.08-.13-.19-.22-.32-.28-.13-.06-.27-.09-.42-.09-.11,0-.21.01-.31.04-.1.03-.2.07-.28.12-.08.05-.15.12-.2.21-.05.09-.07.19-.07.31,0,.09.01.17.04.24.03.07.07.13.14.19.07.06.15.11.26.16.11.05.25.1.41.15.16.05.31.1.45.16.15.06.28.13.39.22.11.09.2.2.27.33.07.13.1.3.1.49s-.04.38-.12.53c-.08.15-.19.27-.32.37-.13.1-.28.17-.45.22-.17.05-.35.07-.53.07-.12,0-.24,0-.35-.03-.12-.02-.23-.05-.34-.1-.11-.04-.21-.1-.31-.17-.1-.07-.18-.16-.25-.26l.41-.34c.09.15.21.26.37.34.16.08.32.11.5.11.1,0,.21-.02.31-.04.11-.03.2-.08.28-.13.08-.06.15-.13.21-.22.05-.09.08-.19.08-.3,0-.13-.02-.23-.06-.31-.04-.08-.11-.15-.19-.2-.09-.06-.2-.11-.33-.15-.13-.05-.29-.1-.47-.16-.14-.05-.28-.1-.4-.16-.12-.06-.23-.13-.32-.22-.09-.09-.16-.19-.21-.31-.05-.12-.08-.26-.08-.43,0-.2.04-.36.11-.51.08-.15.18-.27.31-.36.13-.1.28-.17.44-.22.16-.05.34-.07.51-.07.23,0,.44.04.63.11.19.07.36.19.5.37l-.39.34Z"/>
  <polygon class="cls-1" points="96.63 20.64 95.29 20.64 95.29 24.24 94.81 24.24 94.81 20.64 93.48 20.64 93.48 20.2 96.63 20.2 96.63 20.64"/>
  <rect class="cls-1" x="99.2" y="20.19" width=".48" height="4.05"/>
  <polygon class="cls-1" points="105.4 20.64 104.06 20.64 104.06 24.24 103.58 24.24 103.58 20.64 102.24 20.64 102.24 20.2 105.4 20.2 105.4 20.64"/>
  <path class="cls-1" d="M111,22.7c0,.22-.03.43-.08.63-.06.2-.14.37-.26.52-.12.15-.28.27-.47.36-.19.09-.43.13-.71.13s-.52-.04-.71-.13c-.2-.09-.35-.21-.47-.36-.12-.15-.21-.33-.26-.52-.06-.2-.08-.41-.08-.63v-2.5h.48v2.44c0,.16.02.32.05.47s.09.29.17.41c.08.12.19.21.32.28.13.07.3.11.5.11s.37-.04.5-.11c.13-.07.24-.17.32-.28.08-.12.14-.25.17-.41.03-.15.05-.31.05-.47v-2.44h.48v2.5Z"/>
  <polygon class="cls-1" points="116.7 20.64 115.36 20.64 115.36 24.24 114.88 24.24 114.88 20.64 113.55 20.64 113.55 20.2 116.7 20.2 116.7 20.64"/>
  <path class="cls-1" d="M121.15,24.34c-.31,0-.59-.05-.85-.16-.26-.11-.48-.25-.67-.44-.19-.19-.34-.41-.44-.67-.1-.26-.16-.54-.16-.85s.05-.59.16-.85c.11-.26.25-.49.44-.67.19-.19.41-.34.67-.44.26-.11.54-.16.85-.16s.59.05.85.16c.26.11.48.25.67.44.19.19.33.41.44.67.1.26.16.54.16.85s-.05.59-.16.85c-.11.26-.25.49-.44.67-.19.19-.41.34-.67.44-.26.11-.54.16-.85.16M121.15,23.9c.24,0,.45-.04.65-.13.2-.09.36-.21.51-.36.14-.15.25-.33.33-.53.08-.2.12-.42.12-.65s-.04-.45-.12-.65c-.08-.2-.19-.38-.33-.53-.14-.15-.31-.27-.51-.36-.2-.09-.41-.13-.65-.13s-.45.04-.65.13c-.2.09-.36.21-.51.36-.14.15-.25.33-.33.53-.08.2-.12.42-.12.65s.04.45.12.65c.08.2.19.38.33.53.14.15.31.27.51.36.2.09.41.13.65.13"/>
  <path class="cls-1" d="M77.55,44.94h.44c.08,0,.17,0,.25.01.08,0,.16.03.22.06.07.03.12.08.16.14.04.06.06.15.06.26,0,.13-.04.23-.11.31-.08.08-.18.13-.32.15l.49.8h-.25l-.47-.78h-.26v.78h-.21v-1.73ZM77.75,45.71h.18c.06,0,.12,0,.18,0,.06,0,.12-.01.17-.03.05-.02.09-.05.13-.09.03-.04.05-.09.05-.16,0-.06-.01-.11-.04-.15-.02-.04-.06-.07-.1-.09-.04-.02-.09-.03-.13-.04-.05,0-.1-.01-.15-.01h-.29v.57Z"/>
  <polygon class="cls-1" points="79.29 44.94 80.38 44.94 80.38 45.13 79.49 45.13 79.49 45.68 80.32 45.68 80.32 45.87 79.49 45.87 79.49 46.49 80.42 46.49 80.42 46.68 79.29 46.68 79.29 44.94"/>
  <path class="cls-1" d="M81.55,44.94h.19l.74,1.73h-.24l-.18-.43h-.87l-.18.43h-.23l.76-1.73ZM81.64,45.21h0l-.36.85h.71l-.34-.85Z"/>
  <path class="cls-1" d="M82.95,44.94h.53c.07,0,.14,0,.21.02.07.02.13.04.18.07.05.03.1.08.13.13.03.05.05.12.05.2,0,.1-.03.19-.08.25-.06.07-.13.11-.22.14h0c.06,0,.11.02.16.05.05.02.09.05.12.09.04.04.06.08.08.13.02.05.03.1.03.16,0,.1-.02.18-.06.24-.04.06-.09.11-.16.15-.06.04-.14.06-.22.08s-.16.02-.24.02h-.52v-1.73ZM83.16,45.68h.28s.1,0,.14,0c.05,0,.09-.02.13-.04.04-.02.07-.05.09-.09.02-.04.03-.09.03-.15,0-.05-.01-.1-.03-.13-.02-.03-.05-.06-.09-.08-.04-.02-.07-.03-.12-.04-.04,0-.09-.01-.14-.01h-.31v.54ZM83.16,46.49h.35c.05,0,.1,0,.15-.02.05-.01.09-.03.13-.05.04-.02.07-.06.1-.09.02-.04.04-.09.04-.14,0-.06-.01-.11-.04-.15-.02-.04-.05-.07-.09-.1-.04-.02-.08-.04-.13-.05-.05,0-.1-.01-.15-.01h-.35v.62Z"/>
  <rect class="cls-1" x="84.74" y="44.94" width=".21" height="1.73"/>
  <polygon class="cls-1" points="85.62 44.94 85.83 44.94 85.83 46.49 86.62 46.49 86.62 46.68 85.62 46.68 85.62 44.94"/>
  <rect class="cls-1" x="87.09" y="44.94" width=".21" height="1.73"/>
  <polygon class="cls-1" points="89.14 45.13 88.56 45.13 88.56 46.68 88.36 46.68 88.36 45.13 87.79 45.13 87.79 44.94 89.14 44.94 89.14 45.13"/>
  <path class="cls-1" d="M89.96,44.94h.19l.74,1.73h-.24l-.18-.43h-.87l-.18.43h-.23l.76-1.73ZM90.06,45.21h0l-.36.85h.71l-.34-.85Z"/>
  <path class="cls-1" d="M92.58,45.3c-.05-.07-.12-.12-.19-.16-.08-.03-.16-.05-.24-.05-.1,0-.18.02-.26.06-.08.04-.15.09-.21.16-.06.07-.11.14-.14.23-.03.09-.05.18-.05.27,0,.1.02.2.05.28.03.09.08.16.14.23.06.07.13.12.21.15.08.04.17.06.27.06.11,0,.2-.02.28-.06.08-.04.16-.1.22-.18l.15.13c-.08.11-.17.18-.28.23-.11.05-.23.07-.37.07l-.08.11s.02,0,.04,0c.01,0,.03,0,.05,0s.04,0,.07.01c.02,0,.04.02.06.03.02.01.04.03.05.05.01.02.02.05.02.08,0,.04,0,.07-.02.1-.02.03-.04.05-.07.07-.03.02-.06.03-.09.04-.03,0-.07.01-.1.01-.04,0-.08,0-.13-.01-.04,0-.08-.02-.12-.04l.04-.09c.06.03.12.04.18.04.02,0,.03,0,.05,0,.02,0,.03,0,.05-.02.02,0,.03-.02.04-.03s.02-.03.02-.05c0-.03-.02-.06-.04-.07-.03-.01-.06-.02-.08-.02-.02,0-.03,0-.05,0-.02,0-.03,0-.05.01l-.05-.05.12-.17c-.11-.01-.21-.04-.31-.09-.09-.05-.18-.11-.25-.19s-.12-.17-.16-.28c-.04-.11-.06-.22-.06-.34s.02-.25.07-.36c.04-.11.1-.21.18-.29s.17-.15.28-.19.23-.07.35-.07c.12,0,.23.02.34.06.11.04.2.11.27.21l-.18.13Z"/>
  <path class="cls-1" d="M93.9,44.94h.19l.74,1.73h-.24l-.18-.43h-.87l-.18.43h-.23l.76-1.73ZM93.58,44.79s.01-.06.03-.09c.01-.03.03-.06.05-.08.02-.02.04-.04.07-.06.03-.01.06-.02.1-.02s.07,0,.11.02c.03.01.07.02.1.04.02,0,.05.02.07.03.02,0,.04.01.07.01.03,0,.06-.01.08-.03.02-.02.03-.05.04-.08h.12s-.01.06-.02.09-.02.06-.04.08c-.02.02-.04.04-.07.06-.03.01-.06.02-.09.02s-.07,0-.1-.02c-.03-.01-.07-.02-.1-.04-.02,0-.05-.02-.08-.03-.03-.01-.06-.02-.08-.02-.03,0-.05.01-.07.03-.02.02-.03.05-.04.07h-.12ZM93.99,45.21h0l-.36.85h.71l-.34-.85Z"/>
  <path class="cls-1" d="M96.11,46.72c-.13,0-.25-.02-.36-.07-.11-.05-.21-.11-.29-.19s-.14-.18-.19-.29c-.04-.11-.07-.23-.07-.36s.02-.25.07-.36c.04-.11.11-.21.19-.29s.18-.14.29-.19c.11-.04.23-.07.36-.07s.25.02.36.07c.11.05.21.11.29.19s.14.18.19.29c.05.11.07.23.07.36s-.02.25-.07.36c-.04.11-.11.21-.19.29s-.18.14-.29.19c-.11.04-.23.07-.36.07M96.11,46.53c.1,0,.19-.02.28-.06.08-.04.16-.09.22-.15.06-.07.11-.14.14-.23.03-.09.05-.18.05-.28s-.02-.19-.05-.28c-.03-.09-.08-.16-.14-.23-.06-.07-.13-.12-.22-.15-.08-.04-.18-.06-.28-.06s-.19.02-.28.06c-.09.04-.16.09-.22.15-.06.07-.11.14-.14.23-.03.09-.05.18-.05.28s.02.19.05.28c.03.09.08.16.14.23.06.07.13.12.22.15.08.04.18.06.28.06"/>
  <polygon class="cls-1" points="98.52 44.94 98.78 44.94 99.78 46.38 99.79 46.38 99.79 44.94 100 44.94 100 46.68 99.74 46.68 98.73 45.24 98.73 45.24 98.73 46.68 98.52 46.68 98.52 44.94"/>
  <polygon class="cls-1" points="100.67 44.94 101.76 44.94 101.76 45.13 100.88 45.13 100.88 45.68 101.7 45.68 101.7 45.87 100.88 45.87 100.88 46.49 101.81 46.49 101.81 46.68 100.67 46.68 100.67 44.94"/>
  <path class="cls-1" d="M103.67,46.02c0,.09-.01.18-.04.27-.02.09-.06.16-.11.22-.05.07-.12.12-.2.15-.08.04-.19.06-.3.06s-.22-.02-.3-.06c-.08-.04-.15-.09-.2-.15-.05-.06-.09-.14-.11-.22s-.04-.17-.04-.27v-1.07h.21v1.04c0,.07,0,.14.02.2.02.07.04.12.07.17s.08.09.14.12c.06.03.13.04.22.04s.16-.02.22-.04c.06-.03.1-.07.14-.12.03-.05.06-.11.07-.17.02-.07.02-.13.02-.2v-1.04h.21v1.07Z"/>
  <path class="cls-1" d="M104.34,44.94h.44c.08,0,.17,0,.25.01.08,0,.16.03.22.06.07.03.12.08.16.14.04.06.06.15.06.26,0,.13-.04.23-.11.31-.08.08-.18.13-.32.15l.49.8h-.25l-.47-.78h-.26v.78h-.21v-1.73ZM104.54,45.71h.18c.06,0,.12,0,.18,0,.06,0,.12-.01.17-.03.05-.02.09-.05.13-.09.03-.04.05-.09.05-.16,0-.06-.01-.11-.04-.15-.02-.04-.06-.07-.1-.09-.04-.02-.09-.03-.13-.04-.05,0-.1-.01-.15-.01h-.29v.57Z"/>
  <path class="cls-1" d="M106.89,46.72c-.13,0-.25-.02-.36-.07-.11-.05-.21-.11-.29-.19s-.14-.18-.19-.29c-.04-.11-.07-.23-.07-.36s.02-.25.07-.36c.04-.11.11-.21.19-.29s.18-.14.29-.19c.11-.04.23-.07.36-.07s.25.02.36.07c.11.05.21.11.29.19s.14.18.19.29c.05.11.07.23.07.36s-.02.25-.07.36c-.04.11-.11.21-.19.29s-.18.14-.29.19c-.11.04-.23.07-.36.07M106.89,46.53c.1,0,.19-.02.28-.06.08-.04.16-.09.22-.15.06-.07.11-.14.14-.23.03-.09.05-.18.05-.28s-.02-.19-.05-.28c-.03-.09-.08-.16-.14-.23-.06-.07-.13-.12-.22-.15-.08-.04-.18-.06-.28-.06s-.19.02-.28.06c-.09.04-.16.09-.22.15-.06.07-.11.14-.14.23-.03.09-.05.18-.05.28s.02.19.05.28c.03.09.08.16.14.23.06.07.13.12.22.15.08.04.18.06.28.06"/>
  <rect class="cls-1" x="108.26" y="46" width=".6" height=".18"/>
  <path class="cls-1" d="M110.64,45.3c-.05-.07-.12-.12-.19-.16-.08-.03-.16-.05-.24-.05-.1,0-.18.02-.26.06-.08.04-.15.09-.21.16-.06.07-.1.14-.14.23-.03.09-.05.18-.05.27,0,.1.02.2.05.28.03.09.08.16.14.23.06.07.13.12.21.15.08.04.17.06.27.06.11,0,.2-.02.28-.06.08-.04.15-.1.22-.18l.15.13c-.08.11-.17.18-.28.23-.11.05-.24.07-.37.07-.12,0-.24-.02-.35-.07-.11-.04-.2-.11-.28-.19-.08-.08-.14-.18-.19-.29-.04-.11-.07-.23-.07-.36s.02-.25.06-.36c.04-.11.1-.21.18-.29.08-.08.17-.15.28-.19s.23-.07.35-.07c.12,0,.23.02.34.06.11.04.2.11.27.21l-.18.13Z"/>
  <path class="cls-1" d="M112.2,46.72c-.13,0-.25-.02-.36-.07-.11-.05-.21-.11-.29-.19s-.14-.18-.19-.29c-.05-.11-.07-.23-.07-.36s.02-.25.07-.36c.04-.11.11-.21.19-.29s.18-.14.29-.19c.11-.04.23-.07.36-.07s.25.02.36.07c.11.05.21.11.29.19s.14.18.19.29c.04.11.07.23.07.36s-.02.25-.07.36c-.04.11-.11.21-.19.29s-.18.14-.29.19c-.11.04-.23.07-.36.07M112.2,46.53c.1,0,.19-.02.28-.06.09-.04.16-.09.22-.15.06-.07.11-.14.14-.23.03-.09.05-.18.05-.28s-.02-.19-.05-.28c-.03-.09-.08-.16-.14-.23-.06-.07-.13-.12-.22-.15-.08-.04-.18-.06-.28-.06s-.19.02-.28.06c-.08.04-.16.09-.22.15-.06.07-.11.14-.14.23-.03.09-.05.18-.05.28s.02.19.05.28c.03.09.08.16.14.23.06.07.13.12.22.15.08.04.18.06.28.06"/>
  <path class="cls-1" d="M115.16,46.56c-.1.06-.2.1-.31.12-.11.03-.22.04-.33.04-.14,0-.26-.02-.37-.07-.11-.04-.21-.11-.29-.19-.08-.08-.15-.18-.19-.29-.05-.11-.07-.24-.07-.37s.02-.26.07-.37c.05-.11.11-.21.2-.29.09-.08.18-.14.3-.19.11-.04.23-.07.36-.07.11,0,.22.02.33.05.11.03.2.09.28.18l-.15.16c-.06-.06-.13-.11-.21-.15-.09-.03-.17-.05-.26-.05-.1,0-.19.02-.28.05-.09.04-.16.09-.22.15s-.11.14-.15.23c-.04.09-.05.18-.05.29s.02.2.05.29c.04.09.08.16.15.23s.14.11.23.15c.09.04.18.05.29.05.07,0,.14,0,.22-.03.08-.02.15-.04.21-.07v-.53h-.4v-.19h.6v.85Z"/>
  <polygon class="cls-1" points="115.84 44.94 116.1 44.94 117.1 46.38 117.1 46.38 117.1 44.94 117.31 44.94 117.31 46.68 117.05 46.68 116.05 45.24 116.04 45.24 116.04 46.68 115.84 46.68 115.84 44.94"/>
  <rect class="cls-1" x="117.99" y="44.94" width=".21" height="1.73"/>
  <polygon class="cls-1" points="120.03 45.13 119.46 45.13 119.46 46.68 119.25 46.68 119.25 45.13 118.68 45.13 118.68 44.94 120.03 44.94 120.03 45.13"/>
  <rect class="cls-1" x="120.52" y="44.94" width=".21" height="1.73"/>
  <polygon class="cls-1" points="121.16 44.94 121.4 44.94 121.93 46.37 121.93 46.37 122.49 44.94 122.7 44.94 122.02 46.68 121.83 46.68 121.16 44.94"/>
  <path class="cls-1" d="M123.59,44.94h.19l.74,1.73h-.24l-.18-.43h-.87l-.18.43h-.23l.76-1.73ZM123.69,45.21h0l-.36.85h.71l-.34-.85Z"/>
  <rect class="cls-1" x="66.71" y="29.31" width="2.29" height="10.41"/>
  <polygon class="cls-1" points="71.08 29.31 74.2 29.31 78.62 36.54 78.65 36.54 78.65 29.31 80.95 29.31 80.95 39.71 77.95 39.71 73.41 32.3 73.38 32.3 73.38 39.71 71.08 39.71 71.08 29.31"/>
  <path class="cls-1" d="M89.87,32.01c-.23-.27-.5-.48-.83-.63-.33-.15-.71-.22-1.14-.22s-.83.08-1.2.25c-.37.17-.69.4-.96.7-.27.3-.48.65-.63,1.07-.15.41-.23.86-.23,1.34s.08.94.23,1.35c.15.41.36.76.62,1.06.26.3.58.53.93.7.36.17.74.25,1.15.25.47,0,.89-.1,1.25-.29.36-.2.66-.47.9-.82l1.91,1.42c-.44.62-1,1.07-1.68,1.37-.68.29-1.37.44-2.09.44-.81,0-1.56-.13-2.25-.38-.69-.25-1.28-.62-1.78-1.09-.5-.48-.89-1.05-1.17-1.73-.28-.68-.42-1.43-.42-2.26s.14-1.59.42-2.26.67-1.25,1.17-1.73c.5-.48,1.09-.84,1.78-1.1.69-.25,1.44-.38,2.25-.38.29,0,.6.03.92.08.32.05.63.14.94.26.31.12.61.27.89.47.28.2.54.44.76.72l-1.76,1.44Z"/>
  <polygon class="cls-1" points="93.22 29.31 95.51 29.31 95.51 37.59 99.76 37.59 99.76 39.71 93.22 39.71 93.22 29.31"/>
  <path class="cls-1" d="M109.79,35.7c0,.62-.09,1.19-.28,1.7-.19.52-.46.97-.83,1.35-.37.38-.83.68-1.37.9s-1.18.32-1.9.32-1.36-.11-1.91-.32c-.55-.22-1.01-.51-1.37-.9-.37-.38-.64-.83-.83-1.35-.19-.52-.28-1.09-.28-1.7v-6.39h2.29v6.3c0,.32.05.62.15.9.1.27.25.51.43.71.19.2.41.36.67.47.26.11.54.17.85.17s.58-.06.84-.17c.25-.11.48-.27.66-.47.19-.2.33-.44.43-.71.1-.27.15-.57.15-.9v-6.3h2.29v6.39Z"/>
  <path class="cls-1" d="M117.05,31.85c-.19-.24-.44-.41-.76-.52-.32-.11-.62-.17-.9-.17-.17,0-.34.02-.51.06-.18.04-.34.1-.5.18-.16.08-.28.19-.38.33-.1.14-.15.3-.15.5,0,.31.12.55.35.72.24.17.53.31.89.43.36.12.74.23,1.15.35.41.12.8.28,1.15.5.36.22.65.5.89.87.24.36.35.85.35,1.46s-.11,1.08-.32,1.51-.51.79-.87,1.07c-.37.28-.79.5-1.28.63-.48.14-1,.21-1.54.21-.68,0-1.3-.1-1.88-.31-.58-.21-1.12-.54-1.62-1l1.63-1.79c.24.31.53.56.89.73.36.17.73.26,1.11.26.19,0,.37-.02.57-.07.19-.04.36-.11.52-.2.15-.09.27-.2.37-.34.09-.14.14-.3.14-.48,0-.31-.12-.56-.36-.74-.24-.18-.54-.34-.9-.46-.36-.13-.75-.25-1.18-.38-.42-.13-.81-.3-1.18-.51-.36-.22-.66-.5-.9-.85-.24-.35-.36-.82-.36-1.4s.11-1.05.33-1.47c.22-.42.51-.77.88-1.06.37-.28.79-.5,1.27-.64.48-.14.98-.21,1.48-.21.59,0,1.16.08,1.7.25.55.17,1.04.45,1.48.84l-1.57,1.72Z"/>
  <rect class="cls-1" x="120.32" y="29.31" width="2.29" height="10.41"/>
  <path class="cls-1" d="M124.14,34.51c0-.83.14-1.59.42-2.26.28-.68.67-1.25,1.17-1.73.5-.48,1.09-.84,1.78-1.09.69-.25,1.44-.38,2.25-.38s1.56.13,2.25.38c.69.26,1.28.62,1.78,1.09.5.48.89,1.05,1.17,1.73.28.68.42,1.43.42,2.26s-.14,1.59-.42,2.26-.67,1.25-1.17,1.73c-.5.48-1.09.84-1.78,1.09-.69.25-1.43.38-2.25.38s-1.56-.13-2.25-.38c-.69-.26-1.28-.62-1.78-1.09-.5-.48-.89-1.05-1.17-1.73-.28-.68-.42-1.43-.42-2.26M126.52,34.51c0,.49.08.94.23,1.34.15.41.37.76.65,1.06.28.3.62.53,1.02.7.4.17.84.25,1.33.25s.93-.08,1.33-.25c.4-.17.74-.4,1.02-.7.28-.3.5-.65.65-1.06.15-.41.23-.85.23-1.34s-.08-.93-.23-1.34c-.15-.41-.37-.77-.65-1.07-.28-.3-.62-.53-1.02-.7-.4-.17-.84-.25-1.33-.25s-.93.08-1.33.25c-.4.17-.74.4-1.02.7-.28.3-.5.65-.65,1.07-.15.41-.23.86-.23,1.34"/>
</svg>