<?xml version="1.0" encoding="UTF-8"?>
<svg id="Camada_1" data-name="Camada 1" xmlns="http://www.w3.org/2000/svg" viewBox="0 0 273.26 306.84">
  <defs>
    <style>
      .cls-1 {
        fill: #567483;
      }

      .cls-2 {
        fill: #cfa35b;
      }

      .cls-3 {
        fill: #0088b6;
      }
    </style>
  </defs>
  <path class="cls-2" d="M110.29,84.38c-6.78-1.71-14.6,3.05-15.84,10-.9,5.05.75,10.14,3.83,14.12-1.56.48-3.03,1.31-4.23,2.4-3.61,3.28-3.9,8.26-2.54,12.67.84,2.73,5.14,1.59,4.3-1.15-.89-2.9-1.12-6.23,1.41-8.39,1.43-1.23,3.4-1.82,5.24-1.45.27.2.55.4.83.58,3.09,2.04,6.59,3.37,9.95,4.9,4.14,1.9,8.09,4.08,11.59,7.02,2.17,1.83,5.32-1.31,3.13-3.16-5.55-4.68-11.93-7.27-18.39-10.38-5.87-2.83-10.81-7.35-10.9-14.4-.05-3.66,1.83-6.18,5.06-7.82,2.9-1.47,5.85-.89,8.56.7,4.73,2.76,8.46,8.46,14.03,9.61,2.79.58,3.98-3.71,1.17-4.29-3.16-.66-5.88-3.67-8.26-5.68-2.64-2.23-5.52-4.44-8.94-5.3"/>
  <path class="cls-2" d="M109.77,133.54c-6.73-3.1-14.27-.13-20.98-3.51-6.59-3.33-7.47-9.84-5.19-16.34.95-2.71-3.35-3.86-4.29-1.17-2.56,7.29-1.66,15.17,4.92,19.94,3.04,2.2,6.72,3.37,10.42,3.81,4.27.51,8.85-.72,12.89,1.14,2.58,1.19,4.83-2.65,2.22-3.85"/>
  <path class="cls-2" d="M100.81,62.04c2.48.14,4.61.83,5.79,3.17.8,1.6,1.25,3.5.83,5.27-1.21,5.04-7.91,5.77-12.12,5.82-2.86.04-2.9,4.48-.03,4.45,5.33-.06,11.6-1.13,14.9-5.78,4.31,2.07,9.31,1.8,12.81-2.01,3.71-4.04,4.22-10.22,1.89-15.07-1.7-3.52-5.01-5.83-7.04-9.15-1.58-2.57-2.71-5.63-2.06-8.68,1.05-4.98,6.36-7.09,10.88-5.56,2.72.92,3.87-3.37,1.17-4.29-4.64-1.57-9.96-.45-13.37,3.15-4.02,4.25-3.98,10.31-1.65,15.39,2.68,5.85,10.24,9.84,8.91,17.05-.41,2.24-1.7,4.49-3.8,5.53-2.07,1.02-4.17.53-6.05-.48.52-3.14-.35-6.53-2.17-9.12-3.47-4.92-9.76-4.13-15.02-4.01-6.19.14-11.5-2.55-11.62-9.33-.05-2.86-4.5-2.89-4.45-.03.08,4.89,2.19,9.48,6.61,11.91,4.99,2.75,10.23,1.47,15.61,1.78"/>
  <path class="cls-2" d="M213.37,83.46c-.94-8.84-3.3-17.86-9.15-24.72.86-7.07.34-13.97-2.65-20.53-2.74-6-7.46-12.1-13.55-15.03-1.3-4.71-3.18-9.37-6.9-12.7-3.72-3.33-9.06-5.83-14.17-5.66-5.5-5.29-15.2-6.43-21.64-2.39-7.02,4.4-8.83,12.72-7.82,20.43-.32.54-.62,1.1-.89,1.67-.27-.57-.57-1.13-.89-1.68,1.01-7.73-.8-16.03-7.83-20.44-6.44-4.04-16.12-2.87-21.62,2.4-5.13-.16-10.45,2.34-14.19,5.68-3.72,3.32-5.59,7.98-6.89,12.69-6.19,2.98-10.95,9.23-13.69,15.34-2.91,6.5-3.3,13.25-2.5,20.2-5.07,5.92-7.44,13.41-8.66,21.04-1.61,10.07-.35,19.78,3.94,29.04.99,2.14,2.42,4.02,2.62,6.38.18,2.19.54,4.36,1.11,6.48,1.19,4.41,3.19,8.64,5.82,12.36,2.56,3.63,5.65,6.81,9.23,9.45,1.71,1.26,3.52,2.4,5.43,3.34,1.86.92,4.45,1.38,6.02,2.58,1.02.77,1.81,2.04,2.77,2.91.97.88,2.01,1.69,3.09,2.44,1.98,1.37,4.16,2.43,6.42,3.24,4.37,1.57,9.08,2.01,13.7,2.06.19.03.39.03.62,0,.26,0,.49-.04.7-.11,10.27-1.65,14.05-10.65,14.71-19.97.64,9.24,4.97,18.37,14.88,19.98.21.06.43.1.68.1.24.03.46.02.66-.01,8.61-.12,17.02-1.96,23.5-8.02.85-.79,1.58-1.94,2.48-2.65.71-.55,1.68-.73,2.55-1.07,2.17-.83,4.27-1.83,6.25-3.05,3.79-2.34,7.21-5.34,10.01-8.81,2.79-3.46,5.01-7.27,6.58-11.42.79-2.09,1.39-4.25,1.77-6.46.4-2.35.31-4.42,1.45-6.55,4.72-8.86,7.12-18.52,6.05-28.57M132.11,141.6c-.51,4.49-2.17,9.35-6,12.06-1.46,1.03-3.2,1.73-4.98,1.95-6.02-.03-12.1-.73-17.34-3.93-1.43-.87-2.75-1.9-3.96-3.06-.46-.44-.88-.98-1.32-1.51,3.94-3.19,10.97,2,14.85,3.49,2.62,1.01,5.36,1.5,8.01.31,3.27-1.48,5.19-4.93,3.91-8.43-.97-2.67-5.28-1.54-4.29,1.15,1.15,3.15-2.56,3.88-4.86,3.23-2.74-.79-5.24-2.27-7.84-3.39-4.85-2.08-9.81-2.75-13.43,1.02-2.59-1.03-5.1-1.88-7.53-3.45-5.38-3.46-9.72-8.45-12.59-14.15-1.45-2.88-2.47-5.96-3.05-9.13-.28-1.54-.2-3.12-.45-4.65.26-3.63,1.32-8.14,5.24-9.37,3.24-1.02,6.85.68,9.36,2.66,2.22,1.75,5.38-1.39,3.13-3.16-.98-.77-2.05-1.5-3.17-2.12,2.86-3.26,4.45-7.44,3.62-11.91-.85-4.53-4.21-8.27-8.64-9.52-2.76-.78-3.93,3.51-1.17,4.29,2.95.83,5.05,3.36,5.52,6.38.56,3.6-1.29,6.65-3.8,9-2.1-.49-4.27-.5-6.41.23-3.48,1.17-5.58,3.85-6.78,7-5.47-12.16-5.6-26.79.25-38.92.64-1.33,1.38-2.6,2.22-3.81.88,1.76,1.99,3.33,3.29,4.64-7.97,4.65-8.03,18.44-1.72,24.59,2.05,1.99,5.19-1.16,3.13-3.16-4.76-4.64-4.72-16.56,2.94-18.37,3.02,1.37,6.57,1.67,10.4.49,2.73-.84,1.59-5.14-1.15-4.3-7.04,2.16-12.21-2.17-14.05-8.85-.12-2.07-.45-4.09-.46-6.18-.03-6.67,2.07-12.91,6.04-18.27,1.02-1.38,2.18-2.76,3.46-3.99-.17,1.86.13,3.76,1.05,5.6,1.27,2.56,5.1.31,3.83-2.25-1.54-3.12.61-7.05,2.81-9.23,2.03-2,4.65-3.36,7.47-3.78,2.8-.41,9.44.34,8.58,4.61-1.18,5.9-9.54,6.95-13.05,10.98-2.71,3.12-3.8,7.88-1.57,11.58,3.26,5.42,10.12,4.34,15.04,2.23,2.62-1.12.35-4.95-2.25-3.84-3.63,1.55-10.49,2.04-9.47-3.87.4-2.33,2.11-3.94,4.07-5.07,2.96-1.71,6.14-3.17,8.53-5.7,3.57-3.77,4.62-9.41.17-12.91-4.24-3.34-10.47-3.14-15.21-1.08-.22.1-.44.2-.67.31,2.4-4.31,6.38-7.28,11.37-8.42,1.32-.3,2.65-.12,3.94-.29,3.72.09,6.3,1.66,9.5,3.26,2.5,1.25,4.92,1.49,7.38,0,2.44-1.49.2-5.33-2.25-3.84-1.9,1.16-3.6-.42-5.29-1.33-1.21-.65-2.44-1.18-3.69-1.58,2.16-.96,4.58-1.45,6.88-1.39,5.12.15,9.4,3.62,11.04,8.4.68,1.99.93,4.06.9,6.14-3.93-2.3-8.95-2.59-12.83.18-2.31,1.65-.08,5.5,2.25,3.83,3.6-2.57,8.05-1.26,10.81,1.92.24.48.53.97.82,1.57.86,1.8,1.38,3.82,1.61,5.8.08.68.11,1.36.13,2.04,0,.38,0,.76,0,1.15-.07,2.8-.6,5.59-1.4,8.28-.11.37-.25.75-.41,1.14-2.08-1.8-4.64-2.87-7.62-2.9-2.86-.03-2.89,4.42-.03,4.45,2.86.03,4.99,1.5,6.53,3.86.35,1.21,1.04,2.5,1.36,3.52.9,2.88,1.47,5.94,1.61,9.01-.03.86-.02,1.71.01,2.57-.11,2.96-.65,5.89-1.73,8.64-.16.42-.37.82-.56,1.22-.18.16-.35.37-.49.63-1.59,2.93-3.61,5.54-6.84,6.73-2.67.97-1.54,5.28,1.15,4.3,2.84-1.04,5.08-2.72,6.9-4.88.06.2.13.41.18.61.81,3.08,1.31,6.26,1.34,9.44-.01.72-.02,1.45-.01,2.18-.05,3.09-.31,6.24-1.29,9.16-.25.74-.76,1.53-1.08,2.33-6.87,7.48-17.31-4-21.41-9.3-1.73-2.23-5.59-.01-3.84,2.25,4.31,5.57,9.82,11.92,17.04,13.55,3.25.74,6.55.22,9.21-1.53,1.26,4.72,1.32,10.21.45,14.96-.23,1.26-.93,2.55-1.32,3.8-1.34,2.11-3.14,4.07-5.74,4.12-2.96.05-6.17-1.78-8.52-3.45-3.9-2.76-6.83-7.33-11.66-8.56-2.77-.71-3.95,3.58-1.17,4.29,2.52.64,4.34,2.74,6.18,4.46,2.53,2.36,5.24,4.52,8.43,5.93,3,1.33,6.33,2.36,9.58,1.32,1.14-.37,2.16-.94,3.08-1.65.01.18.02.37.03.55.04,1.7,0,3.42-.2,5.11M207.91,98.72c-.7,2.71-1.68,5.33-2.84,7.86-1.2-3.15-3.28-5.83-6.77-7.01-2.15-.73-4.32-.72-6.42-.23-2.51-2.34-4.36-5.39-3.81-8.99.46-3.02,2.56-5.56,5.51-6.39,2.75-.77,1.61-5.07-1.15-4.3-4.44,1.25-7.79,4.97-8.65,9.51-.85,4.48.76,8.66,3.62,11.93-1.13.63-2.2,1.35-3.19,2.13-2.24,1.77.94,4.88,3.16,3.13,2.51-1.98,6.1-3.64,9.34-2.65,3.91,1.2,4.99,5.71,5.25,9.31-.26,1.53-.16,3.16-.44,4.7-1.16,6.39-4.2,12.39-8.55,17.21-2.1,2.33-4.47,4.4-7.11,6.09-2.42,1.56-4.93,2.42-7.51,3.44-3.62-3.79-8.6-3.1-13.45-1.01-2.53,1.09-4.96,2.51-7.6,3.31-2.28.69-6.3.17-5.09-3.15.98-2.69-3.32-3.85-4.29-1.17-1.24,3.39.51,6.77,3.65,8.33,2.69,1.34,5.56.84,8.25-.2,3.9-1.5,10.93-6.69,14.87-3.48-.35.43-.7.86-1.07,1.23-1.29,1.28-2.69,2.39-4.24,3.33-2.57,1.57-5.4,2.57-8.35,3.17-2.95.6-5.95.74-8.95.75-3.88-.48-6.97-3-8.79-6.38-2.26-4.19-2.42-8.65-2.23-13.17.8.6,1.68,1.1,2.66,1.45,3.31,1.19,6.76.13,9.85-1.24,3.1-1.38,5.76-3.47,8.23-5.76,1.89-1.75,3.76-3.96,6.35-4.62,2.77-.71,1.62-5-1.15-4.3-4.85,1.24-7.78,5.81-11.69,8.57-2.36,1.67-5.51,3.47-8.48,3.44-3.02-.03-4.98-2.66-6.37-5.12-.41-.94-.6-2.04-.77-3.04-.43-2.5-.49-5.08-.41-7.61.08-2.34.29-4.71.87-6.99,8.8,6.32,20.63-4.84,25.94-11.7,1.73-2.23-1.41-5.39-3.16-3.13-4.13,5.34-14.72,17.36-21.74,9.74-.34-.92-.93-1.83-1.2-2.67-.69-2.2-1.08-4.55-1.24-6.94.08-1.62.08-3.23.03-4.81,0-.09-.01-.19-.01-.28.19-2.89.67-5.76,1.37-8.41.05-.21.12-.41.18-.62,1.82,2.15,4.06,3.84,6.89,4.87,2.69.99,3.85-3.31,1.17-4.29-3.24-1.19-5.27-3.8-6.86-6.74-.14-.25-.3-.46-.48-.62-.24-.52-.51-1.04-.71-1.6-1.1-2.99-1.49-6.05-1.53-9.22-.04-3.68.48-7.09,1.57-10.6.34-1.08,1.07-2.39,1.41-3.61,1.52-2.3,3.64-3.76,6.45-3.79,2.86-.03,2.9-4.48.03-4.45-2.99.03-5.56,1.09-7.65,2.9-.16-.39-.31-.77-.41-1.12-.8-2.7-1.33-5.49-1.4-8.3,0-.32,0-.65,0-.97.01-.72.04-1.45.12-2.17.2-1.84.67-3.7,1.41-5.39.34-.78.75-1.42,1.07-2.07,2.77-3.16,7.19-4.41,10.77-1.86,2.33,1.66,4.54-2.2,2.22-3.85-3.87-2.76-8.87-2.47-12.79-.19-.03-4.57,1.27-9.17,5.04-12.09,3.89-3.01,9.36-3.04,13.77-1.05-1.27.41-2.5.93-3.73,1.59-1.71.92-3.39,2.48-5.29,1.32-2.45-1.49-4.67,2.36-2.22,3.85,2.46,1.5,4.88,1.24,7.38,0,3.19-1.6,5.76-3.17,9.46-3.25,1.29.18,2.62,0,3.95.29,3.04.69,5.9,2.09,8.21,4.21,1.32,1.22,2.37,2.65,3.2,4.21-4.43-2.17-10.02-2.59-14.42-.22-4.6,2.48-5.71,7.59-2.89,11.92,1.91,2.93,4.93,4.82,7.93,6.48,2.26,1.25,4.7,2.36,5.81,4.87.76,1.73.78,3.95-.66,5.34-2.19,2.12-6,.96-8.39-.07-2.6-1.11-4.85,2.72-2.22,3.85,4.45,1.91,10.31,3.1,14.03-.92,2.88-3.1,2.73-7.95.55-11.39-3.16-5.01-9.94-5.59-13.22-10.41-2.92-4.31,1.63-6.75,5.57-6.81,3.01-.04,5.99.98,8.35,2.85,2.78,2.19,5.78,6.64,3.97,10.29-1.26,2.56,2.58,4.79,3.85,2.22.93-1.87,1.21-3.82,1.01-5.73,3.87,3.53,6.76,8.56,8.23,13.26.93,2.96,1.32,6.01,1.3,9.1,0,1.81-.14,3.62-.36,5.42-.03.24-.05.46-.06.66-.01.04-.03.08-.04.13-1.84,6.68-6.99,11.03-14.05,8.86-2.74-.84-3.91,3.45-1.17,4.29,3.83,1.18,7.38.88,10.41-.49,7.68,1.82,7.7,13.75,2.93,18.39-2.05,2,1.11,5.13,3.16,3.13,6.3-6.14,6.22-19.93-1.74-24.57,1.31-1.31,2.42-2.89,3.3-4.65,2.64,3.8,4.15,8.3,5.16,12.8,1.63,7.3,2.04,14.81.15,22.09"/>
  <path class="cls-2" d="M170.73,112.58c1.85-.37,3.82.23,5.25,1.47,2.5,2.16,2.29,5.47,1.4,8.36-.85,2.74,3.45,3.91,4.29,1.17,1.36-4.41,1.07-9.42-2.56-12.7-1.2-1.08-2.65-1.9-4.21-2.39,3.07-3.98,4.72-9.07,3.83-14.11-1.22-6.96-9.06-11.72-15.83-10.02-3.43.86-6.32,3.07-8.97,5.32-2.36,2-5.09,5-8.23,5.65-2.8.58-1.64,4.88,1.15,4.3,5.57-1.16,9.32-6.85,14.05-9.62,2.73-1.6,5.64-2.14,8.56-.68,3.21,1.6,5.11,4.16,5.04,7.77-.12,7.09-5,11.59-10.91,14.44-6.46,3.12-12.83,5.7-18.39,10.39-2.18,1.84.99,4.96,3.16,3.13,3.49-2.95,7.45-5.12,11.59-7.01,3.35-1.54,6.85-2.87,9.95-4.9.28-.18.55-.38.82-.57"/>
  <path class="cls-2" d="M165.66,137.38c3.91-1.8,8.3-.65,12.44-1.08,3.85-.4,7.72-1.57,10.88-3.87,6.56-4.78,7.47-12.62,4.91-19.91-.94-2.68-5.24-1.56-4.3,1.15,2.29,6.52,1.4,13.03-5.2,16.36-6.7,3.39-14.25.41-20.98,3.51-2.59,1.19-.33,5.02,2.25,3.83"/>
  <path class="cls-2" d="M163.01,74.96c3.28,4.63,9.56,5.72,14.87,5.79,2.86.04,2.89-4.41.03-4.45-4.04-.05-10.29-.68-11.95-5.13-.01-.04-.03-.08-.04-.12-.04-.11-.08-.23-.11-.35-.52-1.83-.06-3.83.78-5.5,1.16-2.32,3.29-3.01,5.75-3.15,5.29-.32,10.38.91,15.34-1.63,4.58-2.35,6.82-7.04,6.91-12.03.05-2.87-4.4-2.89-4.45-.03-.11,6.59-5.16,9.48-11.28,9.37-5.36-.09-11.83-1.02-15.37,4.02-1.82,2.59-2.68,5.97-2.17,9.1-1.82.98-3.84,1.48-5.86.58-2.13-.95-3.46-3.16-3.94-5.37-.58-2.69.08-5.51,1.66-7.74,2.36-3.33,5.45-5.77,7.2-9.59,2.3-5.02,2.35-10.96-1.52-15.22-3.38-3.72-8.8-4.9-13.5-3.31-2.7.92-1.56,5.22,1.15,4.3,4.52-1.53,9.83.57,10.89,5.54.65,3.05-.49,6.13-2.07,8.71-2.03,3.32-5.34,5.62-7.04,9.15-2.35,4.88-1.78,11,1.91,15.07,3.47,3.82,8.5,4.05,12.8,1.99"/>
  <rect class="cls-3" x="48.16" y="199.32" width="1.91" height="16.11"/>
  <polygon class="cls-3" points="62.04 199.32 64.45 199.32 73.77 212.7 73.82 212.7 73.82 199.32 75.73 199.32 75.73 215.43 73.32 215.43 63.99 202.06 63.95 202.06 63.95 215.43 62.04 215.43 62.04 199.32"/>
  <path class="cls-3" d="M95.34,202.17c-.32-.51-.74-.89-1.27-1.12-.53-.23-1.08-.35-1.66-.35-.43,0-.84.05-1.25.16-.41.11-.77.27-1.1.48-.33.21-.59.49-.79.84-.2.35-.3.76-.3,1.23,0,.36.06.68.17.97.12.28.3.53.56.76.26.23.61.44,1.05.64.44.2.98.4,1.61.59.62.2,1.23.41,1.81.64.58.23,1.1.52,1.55.86.45.35.8.79,1.07,1.31.26.52.4,1.18.4,1.97s-.16,1.5-.48,2.09c-.32.59-.74,1.08-1.26,1.47-.52.39-1.13.68-1.81.86-.68.19-1.39.28-2.12.28-.47,0-.94-.04-1.41-.13-.47-.08-.92-.21-1.35-.39-.43-.18-.84-.4-1.22-.68-.38-.28-.7-.63-.98-1.04l1.64-1.34c.35.59.83,1.04,1.46,1.34.62.31,1.28.46,1.98.46.41,0,.82-.06,1.24-.18.42-.12.79-.3,1.12-.53.34-.24.61-.53.82-.88.21-.35.32-.75.32-1.21,0-.5-.08-.91-.25-1.22-.17-.31-.43-.58-.77-.81-.35-.23-.79-.43-1.32-.61-.53-.18-1.15-.4-1.87-.64-.58-.18-1.11-.39-1.59-.62-.49-.23-.91-.52-1.26-.86-.36-.34-.64-.75-.84-1.23-.21-.48-.31-1.05-.31-1.72,0-.77.15-1.45.46-2.03.3-.58.71-1.06,1.23-1.44.52-.39,1.1-.68,1.75-.88.65-.2,1.34-.3,2.05-.3.91,0,1.74.14,2.49.42.75.28,1.42.77,2.01,1.47l-1.57,1.37Z"/>
  <polygon class="cls-3" points="119.11 201.1 113.78 201.1 113.78 215.43 111.87 215.43 111.87 201.1 106.55 201.1 106.55 199.32 119.11 199.32 119.11 201.1"/>
  <rect class="cls-3" x="129.32" y="199.32" width="1.91" height="16.11"/>
  <polygon class="cls-3" points="154 201.1 148.68 201.1 148.68 215.43 146.76 215.43 146.76 201.1 141.44 201.1 141.44 199.32 154 199.32 154 201.1"/>
  <path class="cls-3" d="M176.29,209.29c0,.88-.11,1.71-.33,2.5-.22.79-.57,1.48-1.05,2.08-.48.6-1.1,1.08-1.88,1.43-.77.36-1.71.53-2.82.53s-2.05-.18-2.82-.53c-.77-.36-1.4-.83-1.88-1.43-.48-.6-.83-1.29-1.05-2.08-.22-.79-.33-1.62-.33-2.5v-9.96h1.91v9.69c0,.65.07,1.28.2,1.89.14.61.36,1.15.68,1.62.32.47.74.85,1.27,1.13.53.28,1.2.42,2,.42s1.47-.14,2-.42c.53-.28.95-.66,1.27-1.13.32-.47.55-1.01.68-1.62.14-.61.21-1.23.21-1.89v-9.69h1.91v9.96Z"/>
  <polygon class="cls-3" points="198.99 201.1 193.67 201.1 193.67 215.43 191.76 215.43 191.76 201.1 186.43 201.1 186.43 199.32 198.99 199.32 198.99 201.1"/>
  <path class="cls-3" d="M216.68,215.84c-1.23,0-2.35-.21-3.38-.64-1.02-.43-1.91-1.01-2.66-1.76-.75-.75-1.34-1.65-1.75-2.68-.42-1.04-.62-2.17-.62-3.38s.21-2.34.62-3.38c.42-1.04,1-1.93,1.75-2.68.75-.75,1.64-1.34,2.66-1.76,1.02-.43,2.15-.64,3.38-.64s2.35.21,3.38.64c1.02.42,1.91,1.01,2.66,1.76.75.75,1.33,1.64,1.75,2.68.42,1.04.63,2.17.63,3.38s-.21,2.34-.63,3.38c-.42,1.04-1,1.93-1.75,2.68-.75.75-1.64,1.34-2.66,1.76-1.02.42-2.15.64-3.38.64M216.68,214.06c.94,0,1.8-.17,2.58-.52.78-.35,1.45-.83,2.01-1.43.56-.61,1-1.32,1.31-2.13.31-.81.46-1.68.46-2.61s-.15-1.79-.46-2.61c-.31-.81-.75-1.52-1.31-2.13-.56-.61-1.23-1.08-2.01-1.43-.78-.35-1.64-.52-2.58-.52s-1.8.17-2.58.52c-.78.35-1.45.83-2.01,1.43-.56.61-1,1.32-1.31,2.13-.31.81-.47,1.68-.47,2.61s.15,1.79.47,2.61c.31.81.75,1.52,1.31,2.13.56.61,1.23,1.08,2.01,1.43.78.35,1.64.52,2.58.52"/>
  <path class="cls-1" d="M43.15,297.82h1.76c.33,0,.66.02.99.06.33.04.62.12.88.25.26.13.47.32.63.57.16.25.25.59.25,1.02,0,.51-.15.92-.46,1.23-.31.31-.73.51-1.27.59l1.96,3.18h-1.01l-1.87-3.1h-1.05v3.1h-.82v-6.9ZM43.96,300.86h.73c.23,0,.46,0,.71-.02.25-.01.47-.05.67-.13.2-.07.37-.18.51-.34.13-.15.2-.37.2-.66,0-.25-.05-.45-.15-.59-.1-.15-.23-.26-.39-.35-.16-.08-.34-.13-.54-.16-.2-.03-.4-.04-.6-.04h-1.15v2.28Z"/>
  <polygon class="cls-1" points="50.08 297.82 54.41 297.82 54.41 298.58 50.89 298.58 50.89 300.75 54.18 300.75 54.18 301.51 50.89 301.51 50.89 303.96 54.59 303.96 54.59 304.72 50.08 304.72 50.08 297.82"/>
  <path class="cls-1" d="M59.07,297.82h.77l2.93,6.9h-.95l-.7-1.7h-3.45l-.71,1.7h-.93l3.04-6.9ZM59.44,298.87h-.02l-1.43,3.39h2.82l-1.37-3.39Z"/>
  <path class="cls-1" d="M64.67,297.82h2.1c.29,0,.57.03.84.09.27.06.52.15.73.29.21.13.39.31.52.52.13.22.2.48.2.8,0,.4-.11.74-.33,1-.22.26-.51.45-.88.56v.02c.22.02.43.08.62.17.19.09.36.22.5.36s.25.32.33.52c.08.2.12.41.12.64,0,.38-.08.7-.24.94-.16.25-.37.45-.62.59-.26.15-.55.25-.87.31-.32.06-.64.09-.96.09h-2.06v-6.9ZM65.49,300.75h1.13c.19,0,.39-.01.57-.04.18-.03.35-.08.5-.16.15-.08.27-.19.36-.34.09-.14.14-.34.14-.58,0-.21-.04-.39-.13-.52-.09-.13-.2-.24-.34-.32-.14-.08-.3-.13-.48-.16-.18-.03-.36-.04-.54-.04h-1.22v2.17ZM65.49,303.96h1.38c.2,0,.4-.02.6-.06.2-.04.38-.11.54-.21.16-.09.29-.22.39-.37.1-.15.15-.34.15-.56,0-.24-.05-.44-.14-.6-.09-.16-.22-.29-.37-.39-.15-.1-.33-.17-.53-.21-.2-.04-.4-.06-.61-.06h-1.4v2.46Z"/>
  <rect class="cls-1" x="71.79" y="297.82" width=".82" height="6.9"/>
  <polygon class="cls-1" points="75.29 297.82 76.11 297.82 76.11 303.96 79.27 303.96 79.27 304.72 75.29 304.72 75.29 297.82"/>
  <rect class="cls-1" x="81.14" y="297.82" width=".82" height="6.9"/>
  <polygon class="cls-1" points="89.28 298.58 87 298.58 87 304.72 86.18 304.72 86.18 298.58 83.9 298.58 83.9 297.82 89.28 297.82 89.28 298.58"/>
  <path class="cls-1" d="M92.57,297.82h.77l2.93,6.9h-.96l-.7-1.7h-3.45l-.71,1.7h-.93l3.04-6.9ZM92.94,298.87h-.02l-1.43,3.39h2.82l-1.37-3.39Z"/>
  <path class="cls-1" d="M103,299.24c-.21-.28-.46-.49-.77-.63-.31-.14-.62-.21-.95-.21-.38,0-.74.08-1.06.23-.32.16-.6.37-.83.63-.23.26-.41.57-.55.92-.13.35-.19.71-.19,1.09,0,.4.06.78.19,1.12.13.35.31.65.54.91.23.26.51.46.83.61.32.15.68.22,1.07.22.42,0,.8-.08,1.13-.25.33-.17.62-.41.87-.72l.61.52c-.31.42-.69.72-1.12.92-.44.19-.93.29-1.49.29l-.31.45s.09-.01.15-.03c.05-.01.12-.01.19-.01.08,0,.17.01.26.04.09.03.18.07.25.12.08.06.14.13.19.21.05.08.07.19.07.3,0,.16-.03.29-.1.4-.07.11-.16.2-.27.27-.11.07-.23.12-.37.15-.14.03-.27.04-.4.04-.17,0-.34-.02-.5-.05-.16-.03-.32-.08-.47-.15l.17-.36c.23.1.46.15.7.15.06,0,.13,0,.2-.02.07-.01.13-.03.19-.06s.11-.07.14-.12c.04-.05.06-.12.06-.19,0-.14-.06-.23-.17-.29-.11-.05-.23-.08-.34-.08-.06,0-.13,0-.19.02-.06.02-.13.03-.18.05l-.19-.19.5-.68c-.44-.05-.85-.17-1.23-.37-.38-.2-.7-.45-.98-.77-.28-.31-.49-.68-.65-1.1-.15-.42-.23-.87-.23-1.36s.09-.98.26-1.42c.17-.44.41-.83.73-1.15.31-.32.68-.58,1.11-.77.43-.19.9-.28,1.41-.28.47,0,.92.08,1.35.26.43.17.79.44,1.09.83l-.71.52Z"/>
  <path class="cls-1" d="M108.24,297.82h.77l2.93,6.9h-.96l-.7-1.7h-3.45l-.71,1.7h-.93l3.04-6.9ZM106.95,297.22c.02-.12.05-.25.1-.37.05-.12.11-.23.19-.33.08-.09.18-.17.29-.23.11-.06.24-.09.39-.09s.29.02.43.07c.13.05.26.1.39.15.1.04.18.08.26.11.07.03.16.05.27.05.13,0,.23-.04.31-.13.08-.08.13-.19.16-.3h.47c-.02.12-.05.25-.09.37s-.1.23-.17.33c-.08.1-.17.17-.27.23-.1.06-.23.09-.37.09s-.27-.02-.4-.06c-.13-.04-.26-.09-.39-.14-.1-.04-.2-.08-.31-.12-.11-.04-.22-.06-.33-.06-.12,0-.22.04-.29.13-.07.09-.12.19-.16.3h-.47ZM108.61,298.87h-.02l-1.43,3.39h2.82l-1.37-3.39Z"/>
  <path class="cls-1" d="M117.05,304.9c-.53,0-1.01-.09-1.45-.27-.44-.18-.82-.43-1.14-.76-.32-.32-.57-.7-.75-1.15-.18-.44-.27-.93-.27-1.45s.09-1,.27-1.45c.18-.44.43-.83.75-1.15.32-.32.7-.57,1.14-.76.44-.18.92-.27,1.45-.27s1.01.09,1.45.27c.44.18.82.44,1.14.76.32.32.57.71.75,1.15.18.45.27.93.27,1.45s-.09,1-.27,1.45c-.18.45-.43.83-.75,1.15-.32.32-.7.57-1.14.76-.44.18-.92.27-1.45.27M117.05,304.14c.4,0,.77-.08,1.11-.22.34-.15.62-.35.86-.61.24-.26.43-.57.56-.91s.2-.72.2-1.11-.06-.77-.2-1.12-.32-.65-.56-.91c-.24-.26-.53-.46-.86-.62-.33-.15-.7-.22-1.11-.22s-.77.08-1.11.22c-.34.15-.62.35-.86.62-.24.26-.43.56-.56.91s-.2.72-.2,1.12.06.77.2,1.11.32.65.56.91c.24.26.53.46.86.61.33.15.7.22,1.11.22"/>
  <polygon class="cls-1" points="126.63 297.82 127.66 297.82 131.66 303.55 131.68 303.55 131.68 297.82 132.5 297.82 132.5 304.72 131.46 304.72 127.47 298.99 127.45 298.99 127.45 304.72 126.63 304.72 126.63 297.82"/>
  <polygon class="cls-1" points="135.19 297.82 139.53 297.82 139.53 298.58 136.01 298.58 136.01 300.75 139.29 300.75 139.29 301.51 136.01 301.51 136.01 303.96 139.7 303.96 139.7 304.72 135.19 304.72 135.19 297.82"/>
  <path class="cls-1" d="M147.12,302.09c0,.38-.05.74-.14,1.07-.1.34-.25.63-.45.89-.21.26-.47.46-.81.61-.33.15-.73.23-1.21.23s-.88-.08-1.21-.23-.6-.36-.8-.61c-.21-.26-.35-.55-.45-.89-.09-.34-.14-.7-.14-1.07v-4.27h.82v4.15c0,.28.03.55.09.81.06.26.16.49.29.69.14.2.32.36.55.48.23.12.51.18.86.18s.63-.06.86-.18c.23-.12.41-.28.55-.48.14-.2.23-.43.29-.69.06-.26.09-.53.09-.81v-4.15h.82v4.27Z"/>
  <path class="cls-1" d="M149.78,297.82h1.76c.33,0,.66.02.99.06.33.04.62.12.88.25.26.13.47.32.63.57.16.25.25.59.25,1.02,0,.51-.15.92-.46,1.23-.31.31-.73.51-1.27.59l1.96,3.18h-1.01l-1.87-3.1h-1.05v3.1h-.82v-6.9ZM150.6,300.86h.73c.23,0,.46,0,.71-.02.25-.01.47-.05.67-.13.2-.07.37-.18.51-.34.13-.15.2-.37.2-.66,0-.25-.05-.45-.15-.59-.1-.15-.23-.26-.39-.35-.16-.08-.34-.13-.54-.16-.2-.03-.4-.04-.6-.04h-1.15v2.28Z"/>
  <path class="cls-1" d="M159.92,304.9c-.53,0-1.01-.09-1.45-.27-.44-.18-.82-.43-1.14-.76-.32-.32-.57-.7-.75-1.15-.18-.44-.27-.93-.27-1.45s.09-1,.27-1.45c.18-.44.43-.83.75-1.15.32-.32.7-.57,1.14-.76.44-.18.92-.27,1.45-.27s1.01.09,1.45.27c.44.18.82.44,1.14.76.32.32.57.71.75,1.15.18.45.27.93.27,1.45s-.09,1-.27,1.45c-.18.45-.43.83-.75,1.15-.32.32-.7.57-1.14.76-.44.18-.92.27-1.45.27M159.92,304.14c.4,0,.77-.08,1.11-.22.34-.15.62-.35.86-.61.24-.26.43-.57.56-.91s.2-.72.2-1.11-.06-.77-.2-1.12-.32-.65-.56-.91c-.24-.26-.53-.46-.86-.62-.33-.15-.7-.22-1.11-.22s-.77.08-1.11.22c-.34.15-.62.35-.86.62-.24.26-.43.56-.56.91s-.2.72-.2,1.12.06.77.2,1.11.32.65.56.91c.24.26.53.46.86.61.33.15.7.22,1.11.22"/>
  <rect class="cls-1" x="165.39" y="302.03" width="2.39" height=".7"/>
  <path class="cls-1" d="M174.87,299.24c-.21-.28-.46-.49-.77-.63-.31-.14-.62-.21-.95-.21-.38,0-.74.08-1.06.23-.32.16-.6.37-.83.63-.23.26-.41.57-.55.92-.13.35-.19.71-.19,1.09,0,.4.06.78.19,1.12.13.35.31.65.54.91.23.26.51.46.83.61.32.15.68.22,1.07.22.42,0,.8-.08,1.13-.25.33-.17.62-.41.87-.72l.62.52c-.31.42-.69.72-1.13.92-.44.19-.93.29-1.49.29-.49,0-.96-.09-1.38-.27-.43-.18-.8-.43-1.12-.76-.31-.32-.56-.7-.74-1.15-.18-.44-.27-.92-.27-1.45s.09-.98.26-1.42c.17-.44.41-.83.73-1.15.31-.32.68-.58,1.11-.77.43-.19.9-.28,1.41-.28.47,0,.92.08,1.35.26.43.17.79.44,1.09.83l-.71.52Z"/>
  <path class="cls-1" d="M181.08,304.9c-.53,0-1.01-.09-1.45-.27-.44-.18-.82-.43-1.14-.76-.32-.32-.57-.7-.75-1.15-.18-.44-.27-.93-.27-1.45s.09-1,.27-1.45c.18-.44.43-.83.75-1.15.32-.32.7-.57,1.14-.76.44-.18.92-.27,1.45-.27s1.01.09,1.45.27c.44.18.82.44,1.14.76.32.32.57.71.75,1.15.18.45.27.93.27,1.45s-.09,1-.27,1.45c-.18.45-.43.83-.75,1.15-.32.32-.7.57-1.14.76-.44.18-.92.27-1.45.27M181.08,304.14c.4,0,.77-.08,1.11-.22.34-.15.62-.35.86-.61.24-.26.43-.57.56-.91s.2-.72.2-1.11-.06-.77-.2-1.12-.32-.65-.56-.91c-.24-.26-.53-.46-.86-.62-.33-.15-.7-.22-1.11-.22s-.77.08-1.11.22c-.34.15-.62.35-.86.62-.24.26-.43.56-.56.91s-.2.72-.2,1.12.06.77.2,1.11.32.65.56.91c.24.26.53.46.86.61.33.15.7.22,1.11.22"/>
  <path class="cls-1" d="M192.85,304.26c-.4.22-.81.38-1.25.49-.44.1-.88.15-1.33.15-.54,0-1.03-.09-1.48-.26-.45-.17-.84-.42-1.16-.74-.33-.32-.58-.7-.77-1.15-.18-.45-.27-.94-.27-1.48s.1-1.04.29-1.49c.19-.45.46-.83.8-1.14.34-.32.73-.56,1.18-.74s.93-.26,1.45-.26c.46,0,.89.07,1.31.21.42.14.8.37,1.13.7l-.61.64c-.23-.25-.52-.45-.85-.59-.34-.14-.68-.2-1.03-.2-.4,0-.76.07-1.1.22-.34.14-.63.34-.88.59-.25.25-.44.56-.58.91-.14.35-.21.74-.21,1.15s.07.79.21,1.14c.14.35.34.66.58.91.25.26.55.46.9.6.35.14.74.21,1.16.21.28,0,.57-.03.88-.1.31-.07.58-.17.84-.3v-2.12h-1.59v-.76h2.41v3.39Z"/>
  <polygon class="cls-1" points="195.54 297.82 196.57 297.82 200.57 303.55 200.59 303.55 200.59 297.82 201.41 297.82 201.41 304.72 200.37 304.72 196.38 298.99 196.36 298.99 196.36 304.72 195.54 304.72 195.54 297.82"/>
  <rect class="cls-1" x="204.1" y="297.82" width=".82" height="6.9"/>
  <polygon class="cls-1" points="212.24 298.58 209.96 298.58 209.96 304.72 209.14 304.72 209.14 298.58 206.86 298.58 206.86 297.82 212.24 297.82 212.24 298.58"/>
  <rect class="cls-1" x="214.18" y="297.82" width=".82" height="6.9"/>
  <polygon class="cls-1" points="216.74 297.82 217.67 297.82 219.79 303.49 219.81 303.49 222.01 297.82 222.87 297.82 220.17 304.72 219.38 304.72 216.74 297.82"/>
  <path class="cls-1" d="M226.41,297.82h.77l2.93,6.9h-.96l-.7-1.7h-3.45l-.71,1.7h-.93l3.04-6.9ZM226.78,298.87h-.02l-1.43,3.39h2.82l-1.37-3.39Z"/>
  <rect class="cls-3" y="235.58" width="9.12" height="41.41"/>
  <polygon class="cls-3" points="17.43 235.58 29.83 235.58 47.43 264.36 47.55 264.36 47.55 235.58 56.68 235.58 56.68 276.99 44.75 276.99 26.67 247.52 26.55 247.52 26.55 276.99 17.43 276.99 17.43 235.58"/>
  <path class="cls-3" d="M92.18,246.34c-.9-1.09-2-1.93-3.3-2.52-1.31-.58-2.82-.88-4.53-.88s-3.3.33-4.77.99c-1.46.66-2.73,1.59-3.8,2.78-1.07,1.19-1.91,2.6-2.52,4.24-.6,1.64-.9,3.41-.9,5.32s.3,3.73.9,5.35c.61,1.62,1.43,3.02,2.49,4.21,1.05,1.19,2.29,2.12,3.72,2.78,1.42.66,2.95.99,4.59.99,1.87,0,3.53-.39,4.97-1.17,1.44-.78,2.63-1.87,3.57-3.28l7.6,5.67c-1.75,2.46-3.98,4.27-6.67,5.44-2.69,1.17-5.46,1.75-8.3,1.75-3.24,0-6.22-.51-8.95-1.52-2.73-1.01-5.09-2.46-7.08-4.36-1.99-1.89-3.54-4.18-4.65-6.87-1.11-2.69-1.67-5.69-1.67-9.01s.55-6.32,1.67-9.01c1.11-2.69,2.66-4.98,4.65-6.87,1.99-1.89,4.35-3.34,7.08-4.36,2.73-1.01,5.71-1.52,8.95-1.52,1.17,0,2.39.11,3.65.32,1.27.22,2.52.56,3.74,1.02,1.23.47,2.41,1.09,3.54,1.87,1.13.78,2.14,1.73,3.04,2.87l-7.02,5.73Z"/>
  <polygon class="cls-3" points="105.52 235.58 114.64 235.58 114.64 268.57 131.54 268.57 131.54 276.99 105.52 276.99 105.52 235.58"/>
  <path class="cls-3" d="M171.49,261.03c0,2.46-.37,4.72-1.11,6.79s-1.84,3.86-3.3,5.38c-1.46,1.52-3.29,2.71-5.47,3.57-2.18.86-4.7,1.29-7.55,1.29s-5.42-.43-7.6-1.29c-2.18-.86-4-2.05-5.47-3.57-1.46-1.52-2.56-3.31-3.3-5.38-.74-2.07-1.11-4.33-1.11-6.79v-25.44h9.12v25.09c0,1.29.2,2.48.61,3.57.41,1.09.98,2.04,1.73,2.84.74.8,1.63,1.42,2.66,1.87,1.03.45,2.15.67,3.36.67s2.32-.22,3.33-.67c1.01-.45,1.89-1.07,2.63-1.87.74-.8,1.32-1.74,1.73-2.84.41-1.09.61-2.28.61-3.57v-25.09h9.12v25.44Z"/>
  <path class="cls-3" d="M200.38,245.7c-.74-.94-1.74-1.63-3.01-2.08-1.27-.45-2.47-.67-3.6-.67-.66,0-1.34.08-2.05.23-.7.15-1.37.4-1.99.73s-1.13.77-1.52,1.32c-.39.54-.58,1.21-.58,1.99,0,1.25.47,2.2,1.4,2.87.94.66,2.12,1.23,3.54,1.7,1.42.47,2.95.93,4.59,1.4,1.64.47,3.17,1.13,4.59,1.99,1.42.86,2.6,2.01,3.54,3.45.94,1.44,1.4,3.37,1.4,5.79s-.43,4.31-1.29,6.02c-.86,1.72-2.02,3.14-3.48,4.27-1.46,1.13-3.16,1.97-5.09,2.52-1.93.54-3.97.82-6.11.82-2.69,0-5.19-.41-7.49-1.23-2.3-.82-4.44-2.14-6.43-3.97l6.49-7.14c.94,1.25,2.12,2.21,3.54,2.9,1.42.68,2.89,1.02,4.41,1.02.74,0,1.49-.09,2.25-.26.76-.18,1.44-.44,2.05-.79.6-.35,1.09-.8,1.46-1.34.37-.55.55-1.19.55-1.93,0-1.25-.48-2.23-1.43-2.95-.95-.72-2.15-1.34-3.6-1.85-1.44-.5-3-1.01-4.68-1.52-1.68-.51-3.24-1.19-4.68-2.05-1.44-.86-2.64-1.99-3.6-3.39-.96-1.41-1.43-3.26-1.43-5.56s.44-4.17,1.32-5.85c.88-1.68,2.05-3.08,3.51-4.21,1.46-1.13,3.15-1.98,5.06-2.54,1.91-.56,3.88-.85,5.91-.85,2.34,0,4.6.33,6.79.99,2.18.66,4.15,1.78,5.91,3.33l-6.26,6.84Z"/>
  <rect class="cls-3" x="213.37" y="235.58" width="9.12" height="41.41"/>
  <path class="cls-3" d="M228.58,256.29c0-3.31.55-6.32,1.66-9.01,1.11-2.69,2.66-4.98,4.65-6.87,1.99-1.89,4.35-3.34,7.08-4.36,2.73-1.01,5.71-1.52,8.95-1.52s6.22.51,8.95,1.52c2.73,1.02,5.09,2.47,7.08,4.36,1.99,1.89,3.54,4.18,4.65,6.87,1.11,2.69,1.67,5.69,1.67,9.01s-.55,6.32-1.67,9.01c-1.11,2.69-2.66,4.98-4.65,6.87-1.99,1.89-4.35,3.34-7.08,4.36-2.73,1.01-5.71,1.52-8.95,1.52s-6.22-.51-8.95-1.52c-2.73-1.01-5.09-2.46-7.08-4.36-1.99-1.89-3.54-4.18-4.65-6.87-1.11-2.69-1.66-5.69-1.66-9.01M238.05,256.29c0,1.95.3,3.73.91,5.35.6,1.62,1.47,3.02,2.6,4.21,1.13,1.19,2.49,2.12,4.07,2.78,1.58.66,3.34.99,5.29.99s3.72-.33,5.29-.99c1.58-.66,2.93-1.59,4.06-2.78,1.13-1.19,2-2.59,2.6-4.21.61-1.62.91-3.4.91-5.35s-.3-3.68-.91-5.32c-.6-1.64-1.47-3.05-2.6-4.24-1.13-1.19-2.49-2.12-4.06-2.78-1.58-.66-3.34-.99-5.29-.99s-3.71.33-5.29.99c-1.58.66-2.93,1.59-4.07,2.78-1.13,1.19-2,2.6-2.6,4.24-.61,1.64-.91,3.41-.91,5.32"/>
</svg>