<svg width="45" height="45" viewBox="0 0 45 45" fill="none" xmlns="http://www.w3.org/2000/svg">
<path d="M6.12948 43.1563V35.7604C6.12948 33.1125 5.43572 31.7354 4.07323 29.4333C2.41225 26.6211 1.52466 23.4196 1.50051 20.1536C1.47636 16.8876 2.3165 13.6733 3.93571 10.8368C5.55492 8.00033 7.89558 5.64261 10.7202 4.00283C13.5449 2.36306 16.753 1.49958 20.0191 1.5C24.9296 1.50055 29.639 3.45123 33.1117 6.92315C36.5844 10.3951 38.5362 15.104 38.5378 20.0146C38.5378 21.2229 38.5378 21.8271 38.5878 22.1646C38.7086 22.9729 39.0878 23.6688 39.4566 24.3896L43.167 31.5854L40.2503 33.0438C39.4066 33.4646 38.9836 33.675 38.6899 34.0646C38.3961 34.4542 38.3128 34.8958 38.1482 35.7729L38.1316 35.8604C37.7503 37.8771 37.3316 40.1021 36.1524 41.5062C35.7357 42 35.2191 42.4021 34.6378 42.6875C33.6774 43.1562 32.4961 43.1563 30.1336 43.1563C29.0399 43.1563 27.9441 43.1813 26.8503 43.1563C24.2607 43.0917 22.3336 40.9125 22.3336 38.3854" stroke="#CFA35B" stroke-width="3" stroke-linecap="round" stroke-linejoin="round"/>
<path d="M27.3089 19.275C26.4214 19.275 25.611 18.9375 24.9964 18.3854M27.3089 19.275C27.3089 21.6625 25.9255 23.9292 23.263 23.9292C20.6005 23.9292 19.2172 26.1958 19.2172 28.5833M27.3089 19.275C31.788 19.275 31.788 12.2937 27.3089 12.2937C26.9005 12.2951 26.5137 12.3611 26.1485 12.4917C26.3672 7.28749 18.8651 5.87499 17.1651 10.75M17.1651 10.75C18.4047 11.5854 19.2172 13.0062 19.2172 14.6187M17.1651 10.75C13.3068 8.14582 8.16512 12.8187 10.611 16.9854C6.50679 17.6 6.94429 23.9292 11.1255 23.9292C11.683 23.9289 12.2322 23.7939 12.7263 23.5356C13.2204 23.2774 13.6447 22.9035 13.963 22.4458" stroke="#CFA35B" stroke-width="3" stroke-linecap="round" stroke-linejoin="round"/>
</svg>
