<svg width="48" height="47" viewBox="0 0 48 47" fill="none" xmlns="http://www.w3.org/2000/svg">
<path d="M1.5 23C1.5 14.5153 1.5 10.2717 4.137 7.637C6.774 5.00225 11.0153 5 19.5 5H28.5C36.9847 5 41.2282 5 43.863 7.637C46.4977 10.274 46.5 14.5153 46.5 23V27.5C46.5 35.9847 46.5 40.2282 43.863 42.863C41.226 45.4977 36.9847 45.5 28.5 45.5H19.5C11.0153 45.5 6.77175 45.5 4.137 42.863C1.50225 40.226 1.5 35.9847 1.5 27.5V23Z" stroke="#CFA35B" stroke-width="1.5"/>
<path opacity="0.5" d="M12.75 5V1.625M35.25 5V1.625M2.625 16.25H24H45.375" stroke="#CEA35B" stroke-width="1.5" stroke-linecap="round"/>
<path d="M12.75 32.5C13.2141 32.5 13.6591 32.6845 13.9873 33.0127C14.3155 33.3409 14.5 33.7859 14.5 34.25C14.5 34.7141 14.3155 35.1591 13.9873 35.4873C13.6591 35.8155 13.2141 36 12.75 36C12.2859 36 11.8409 35.8155 11.5127 35.4873C11.1845 35.1591 11 34.7141 11 34.25C11 33.7859 11.1845 33.3409 11.5127 33.0127C11.8409 32.6845 12.2859 32.5 12.75 32.5ZM24 32.5C24.4641 32.5 24.9091 32.6845 25.2373 33.0127C25.5655 33.3409 25.75 33.7859 25.75 34.25C25.75 34.7141 25.5655 35.1591 25.2373 35.4873C24.9091 35.8155 24.4641 36 24 36C23.5359 36 23.0909 35.8155 22.7627 35.4873C22.4345 35.1591 22.25 34.7141 22.25 34.25C22.25 33.7859 22.4345 33.3409 22.7627 33.0127C23.0909 32.6845 23.5359 32.5 24 32.5ZM35.25 32.5C35.7141 32.5 36.1591 32.6845 36.4873 33.0127C36.8155 33.3409 37 33.7859 37 34.25C37 34.7141 36.8155 35.1591 36.4873 35.4873C36.1591 35.8155 35.7141 36 35.25 36C34.7859 36 34.3409 35.8155 34.0127 35.4873C33.6845 35.1591 33.5 34.7141 33.5 34.25C33.5 33.7859 33.6845 33.3409 34.0127 33.0127C34.3409 32.6845 34.7859 32.5 35.25 32.5ZM12.75 23.5C13.2141 23.5 13.6591 23.6845 13.9873 24.0127C14.3155 24.3409 14.5 24.7859 14.5 25.25C14.5 25.7141 14.3155 26.1591 13.9873 26.4873C13.6591 26.8155 13.2141 27 12.75 27C12.2859 27 11.8409 26.8155 11.5127 26.4873C11.1845 26.1591 11 25.7141 11 25.25C11 24.7859 11.1845 24.3409 11.5127 24.0127C11.8409 23.6845 12.2859 23.5 12.75 23.5ZM24 23.5C24.4641 23.5 24.9091 23.6845 25.2373 24.0127C25.5655 24.3409 25.75 24.7859 25.75 25.25C25.75 25.7141 25.5655 26.1591 25.2373 26.4873C24.9091 26.8155 24.4641 27 24 27C23.5359 27 23.0909 26.8155 22.7627 26.4873C22.4345 26.1591 22.25 25.7141 22.25 25.25C22.25 24.7859 22.4345 24.3409 22.7627 24.0127C23.0909 23.6845 23.5359 23.5 24 23.5ZM35.25 23.5C35.7141 23.5 36.1591 23.6845 36.4873 24.0127C36.8155 24.3409 37 24.7859 37 25.25C37 25.7141 36.8155 26.1591 36.4873 26.4873C36.1591 26.8155 35.7141 27 35.25 27C34.7859 27 34.3409 26.8155 34.0127 26.4873C33.6845 26.1591 33.5 25.7141 33.5 25.25C33.5 24.7859 33.6845 24.3409 34.0127 24.0127C34.3409 23.6845 34.7859 23.5 35.25 23.5Z" fill="#CFA35B" stroke="#CFA35B"/>
</svg>
