<svg width="39" height="45" viewBox="0 0 39 45" fill="none" xmlns="http://www.w3.org/2000/svg">
<path d="M1.5 18.1333V25.6429C1.5 29.7069 1.5 31.74 1.968 33.3981C3.08399 37.3459 6.06561 40.4515 9.87734 41.8333C11.1479 42.2193 12.41 42.6294 14.8411 43.0001C16.26 43.2099 17.7034 43.1609 19.106 42.8553C19.7476 42.7193 20.2707 42.6031 20.7111 42.5044C21.7488 42.2719 22.7864 41.9934 23.7394 41.5087C24.8151 40.9647 25.6516 40.3989 26.8629 39.4624C27.5871 38.9031 28.2499 38.221 29.5734 36.8568L36.4494 29.7727C36.7823 29.4303 37.0465 29.023 37.2269 28.5743C37.4072 28.1256 37.5 27.6444 37.5 27.1584C37.5 26.6724 37.4072 26.1912 37.2269 25.7425C37.0465 25.2939 36.7823 24.8866 36.4494 24.5441C35.775 23.8503 34.863 23.461 33.9124 23.461C32.9619 23.461 32.0499 23.8503 31.3755 24.5441L26.6109 29.4547V18.1333" stroke="#CFA35B" stroke-width="3" stroke-linecap="round" stroke-linejoin="round"/>
<path d="M20.3321 13.293V9.12145C20.3321 7.33397 21.7382 5.88645 23.4725 5.88645C25.2048 5.88645 26.6109 7.33397 26.6109 9.12145V18.8243M14.0554 18.1246V4.735C14.0554 2.94753 15.4615 1.5 17.1938 1.5C18.9281 1.5 20.3321 2.94753 20.3321 4.735V18.1334M7.77666 12.1262V18.1334V6.93919C7.79792 6.09147 8.138 5.28587 8.72443 4.69408C9.31086 4.10228 10.0973 3.7711 10.916 3.7711C11.7348 3.7711 12.5212 4.10228 13.1077 4.69408C13.6941 5.28587 14.0342 6.09147 14.0554 6.93919V18.1334M7.77666 15.4906V13.5079C7.77666 11.7204 6.37267 10.2729 4.63833 10.2729C2.90611 10.2729 1.5 11.7204 1.5 13.5079V19.5129" stroke="#CFA35B" stroke-width="3" stroke-linecap="round" stroke-linejoin="round"/>
</svg>
