<svg width="58" height="58" viewBox="0 0 58 58" fill="none" xmlns="http://www.w3.org/2000/svg">
<path d="M48.3333 51.9583L46.7624 38.6183C46.2791 34.51 42.7991 31.4167 38.6666 31.4167H19.3333C12.0833 31.4167 7.41184 24.8167 5.75642 18.1927L4.83325 14.5" stroke="#D4AB5B" stroke-width="1.5" stroke-linecap="round" stroke-linejoin="round"/>
<path opacity="0.5" d="M19.3333 31.4165V43.4998C19.3333 48.0577 19.3333 50.3342 20.7494 51.7503C22.1656 53.1665 24.4421 53.1665 28.9999 53.1665C33.5578 53.1665 35.8343 53.1665 37.2504 51.7503C38.6666 50.3342 38.6666 48.0577 38.6666 43.4998V31.4165" stroke="#CFA35B" stroke-width="1.5" stroke-linecap="round"/>
<path opacity="0.9" d="M28.9999 24.1666C34.3387 24.1666 38.6666 19.8387 38.6666 14.4999C38.6666 9.16117 34.3387 4.83325 28.9999 4.83325C23.6612 4.83325 19.3333 9.16117 19.3333 14.4999C19.3333 19.8387 23.6612 24.1666 28.9999 24.1666Z" stroke="#D4AB5B" stroke-width="1.5"/>
</svg>
