<svg width="54" height="44" viewBox="0 0 54 44" fill="none" xmlns="http://www.w3.org/2000/svg">
<mask id="path-1-inside-1_285_779" fill="white">
<path d="M14.0674 44C12.8366 44 11.7883 43.5256 10.9225 42.5767C10.0549 41.6278 9.62112 40.4778 9.62112 39.1269V16.7002L2.21439 22.7464C1.88973 22.9776 1.55497 23.0751 1.21013 23.0389C0.863459 23.0027 0.567227 22.8067 0.321436 22.4508C0.0738114 22.095 -0.0307415 21.7281 0.00777794 21.3502C0.0462973 20.9702 0.227889 20.6445 0.552552 20.3731L24.2943 0.919786C24.6923 0.594106 25.1169 0.359897 25.5681 0.217161C26.0194 0.0744245 26.4889 0.00205112 26.9769 4.07507e-05C27.4648 -0.00196962 27.9353 0.0704038 28.3883 0.217161C28.8414 0.363918 29.2651 0.59712 29.6595 0.916769L38.9344 8.48581V4.6259C38.9344 3.83181 39.1857 3.15934 39.6883 2.6085C40.1909 2.05765 40.8035 1.78223 41.5262 1.78223C42.2489 1.78223 42.8624 2.05765 43.3669 2.6085C43.8713 3.15934 44.1226 3.8308 44.1207 4.62289V12.7528L53.4534 20.3761C53.7671 20.6455 53.9459 20.9702 53.99 21.3502C54.034 21.7301 53.9331 22.097 53.6873 22.4508C53.4415 22.8047 53.1453 23.0007 52.7986 23.0389C52.4519 23.0771 52.1163 22.9796 51.7916 22.7464L44.3849 16.6972V39.1299C44.3849 40.4768 43.952 41.6258 43.0862 42.5767C42.2205 43.5256 41.1722 44 39.9414 44H34.8073C33.5765 44 32.5282 43.5256 31.6625 42.5767C30.7967 41.6278 30.3638 40.4778 30.3638 39.1269V30.0802C30.3638 29.5394 30.2052 29.0951 29.8878 28.7473C29.5705 28.3995 29.1651 28.2256 28.6717 28.2256H25.2848C24.7895 28.2256 24.3832 28.3995 24.0659 28.7473C23.7486 29.0951 23.5899 29.5394 23.5899 30.0802V39.1269C23.5899 40.4778 23.157 41.6278 22.2912 42.5767C21.4255 43.5256 20.3772 44 19.1464 44H14.0674ZM14.0674 40.9844H19.1464C19.6398 40.9844 20.0452 40.8105 20.3625 40.4628C20.6799 40.115 20.8385 39.6707 20.8385 39.1299V30.0832C20.8385 28.7343 21.2714 27.5843 22.1372 26.6334C23.0048 25.6845 24.054 25.2101 25.2848 25.2101H28.669C29.9016 25.2101 30.9508 25.6845 31.8165 26.6334C32.6823 27.5843 33.1152 28.7343 33.1152 30.0832V39.1299C33.1152 39.6707 33.2739 40.115 33.5912 40.4628C33.9085 40.8105 34.3139 40.9844 34.8073 40.9844H39.9414C40.4348 40.9844 40.8402 40.8105 41.1575 40.4628C41.4748 40.115 41.6335 39.6707 41.6335 39.1299V14.4777L27.9811 3.3654C27.7023 3.13421 27.3676 3.01861 26.9769 3.01861C26.5862 3.01861 26.2514 3.13421 25.9726 3.3654L12.3725 14.4777V39.1299C12.3725 39.6707 12.5321 40.115 12.8512 40.4628C13.1686 40.8105 13.5739 40.9844 14.0674 40.9844ZM22.0024 16.8781H31.9514C31.9514 15.4628 31.4543 14.2978 30.4601 13.3831C29.4641 12.4684 28.303 12.011 26.9769 12.011C25.6507 12.011 24.4905 12.4684 23.4964 13.3831C22.5022 14.2978 22.0042 15.4628 22.0024 16.8781ZM20.3625 40.4628C20.6799 40.115 20.8385 39.6707 20.8385 39.1299V30.0832C20.8385 28.7343 21.2714 27.5843 22.1372 26.6334C23.0048 25.6845 24.054 25.2101 25.2848 25.2101H28.669C29.9016 25.2101 30.9508 25.6845 31.8165 26.6334C30.9508 25.6825 29.9025 25.2081 28.6717 25.2101H25.2848C24.054 25.2101 23.0048 25.6845 22.1372 26.6334C21.2714 27.5843 20.8385 28.7343 20.8385 30.0832V39.1299C20.8385 39.6707 20.6799 40.115 20.3625 40.4628Z"/>
</mask>
<path d="M14.0674 44C12.8366 44 11.7883 43.5256 10.9225 42.5767C10.0549 41.6278 9.62112 40.4778 9.62112 39.1269V16.7002L2.21439 22.7464C1.88973 22.9776 1.55497 23.0751 1.21013 23.0389C0.863459 23.0027 0.567227 22.8067 0.321436 22.4508C0.0738114 22.095 -0.0307415 21.7281 0.00777794 21.3502C0.0462973 20.9702 0.227889 20.6445 0.552552 20.3731L24.2943 0.919786C24.6923 0.594106 25.1169 0.359897 25.5681 0.217161C26.0194 0.0744245 26.4889 0.00205112 26.9769 4.07507e-05C27.4648 -0.00196962 27.9353 0.0704038 28.3883 0.217161C28.8414 0.363918 29.2651 0.59712 29.6595 0.916769L38.9344 8.48581V4.6259C38.9344 3.83181 39.1857 3.15934 39.6883 2.6085C40.1909 2.05765 40.8035 1.78223 41.5262 1.78223C42.2489 1.78223 42.8624 2.05765 43.3669 2.6085C43.8713 3.15934 44.1226 3.8308 44.1207 4.62289V12.7528L53.4534 20.3761C53.7671 20.6455 53.9459 20.9702 53.99 21.3502C54.034 21.7301 53.9331 22.097 53.6873 22.4508C53.4415 22.8047 53.1453 23.0007 52.7986 23.0389C52.4519 23.0771 52.1163 22.9796 51.7916 22.7464L44.3849 16.6972V39.1299C44.3849 40.4768 43.952 41.6258 43.0862 42.5767C42.2205 43.5256 41.1722 44 39.9414 44H34.8073C33.5765 44 32.5282 43.5256 31.6625 42.5767C30.7967 41.6278 30.3638 40.4778 30.3638 39.1269V30.0802C30.3638 29.5394 30.2052 29.0951 29.8878 28.7473C29.5705 28.3995 29.1651 28.2256 28.6717 28.2256H25.2848C24.7895 28.2256 24.3832 28.3995 24.0659 28.7473C23.7486 29.0951 23.5899 29.5394 23.5899 30.0802V39.1269C23.5899 40.4778 23.157 41.6278 22.2912 42.5767C21.4255 43.5256 20.3772 44 19.1464 44H14.0674ZM14.0674 40.9844H19.1464C19.6398 40.9844 20.0452 40.8105 20.3625 40.4628C20.6799 40.115 20.8385 39.6707 20.8385 39.1299V30.0832C20.8385 28.7343 21.2714 27.5843 22.1372 26.6334C23.0048 25.6845 24.054 25.2101 25.2848 25.2101H28.669C29.9016 25.2101 30.9508 25.6845 31.8165 26.6334C32.6823 27.5843 33.1152 28.7343 33.1152 30.0832V39.1299C33.1152 39.6707 33.2739 40.115 33.5912 40.4628C33.9085 40.8105 34.3139 40.9844 34.8073 40.9844H39.9414C40.4348 40.9844 40.8402 40.8105 41.1575 40.4628C41.4748 40.115 41.6335 39.6707 41.6335 39.1299V14.4777L27.9811 3.3654C27.7023 3.13421 27.3676 3.01861 26.9769 3.01861C26.5862 3.01861 26.2514 3.13421 25.9726 3.3654L12.3725 14.4777V39.1299C12.3725 39.6707 12.5321 40.115 12.8512 40.4628C13.1686 40.8105 13.5739 40.9844 14.0674 40.9844ZM22.0024 16.8781H31.9514C31.9514 15.4628 31.4543 14.2978 30.4601 13.3831C29.4641 12.4684 28.303 12.011 26.9769 12.011C25.6507 12.011 24.4905 12.4684 23.4964 13.3831C22.5022 14.2978 22.0042 15.4628 22.0024 16.8781ZM20.3625 40.4628C20.6799 40.115 20.8385 39.6707 20.8385 39.1299V30.0832C20.8385 28.7343 21.2714 27.5843 22.1372 26.6334C23.0048 25.6845 24.054 25.2101 25.2848 25.2101H28.669C29.9016 25.2101 30.9508 25.6845 31.8165 26.6334C30.9508 25.6825 29.9025 25.2081 28.6717 25.2101H25.2848C24.054 25.2101 23.0048 25.6845 22.1372 26.6334C21.2714 27.5843 20.8385 28.7343 20.8385 30.0832V39.1299C20.8385 39.6707 20.6799 40.115 20.3625 40.4628Z" fill="#CFA35B"/>
<path d="M22.1372 26.6334L-346.869 -310.76L-347.224 -310.371L-347.579 -309.982L22.1372 26.6334ZM20.3625 40.4628L389.724 377.467C486.56 271.334 520.839 144.534 520.839 39.1299H20.8385H-479.161C-479.161 -65.1926 -445.2 -191.104 -348.999 -296.542L20.3625 40.4628ZM20.8385 39.1299H520.839V30.0832H20.8385H-479.161V39.1299H20.8385ZM20.8385 30.0832H520.839C520.839 146.557 479.212 267.3 391.854 363.249L22.1372 26.6334L-347.579 -309.982C-436.669 -212.132 -479.161 -89.0885 -479.161 30.0832H20.8385ZM22.1372 26.6334L391.143 364.027C351.166 407.75 297.676 450.362 229.591 481.151C160.993 512.17 90.7412 525.21 25.2848 525.21V25.2101V-474.79C-123.254 -474.79 -256.061 -410.077 -346.869 -310.76L22.1372 26.6334ZM25.2848 25.2101V525.21H28.669V25.2101V-474.79H25.2848V25.2101ZM28.669 25.2101V525.21C-36.6735 525.21 -106.942 512.214 -175.636 481.151C-243.844 450.307 -297.461 407.571 -337.545 363.638L31.8165 26.6334L401.178 -310.371C310.088 -410.206 177.019 -474.79 28.669 -474.79V25.2101ZM10.9225 42.5767L749.645 -631.433L749.29 -631.822L748.935 -632.211L10.9225 42.5767ZM9.62112 16.7002H1009.62V-2090.49L-622.748 -757.967L9.62112 16.7002ZM2.21439 22.7464L582.272 837.322L609.085 818.229L634.583 797.414L2.21439 22.7464ZM1.21013 23.0389L105.575 -971.5L105.301 -971.529L105.028 -971.557L1.21013 23.0389ZM0.321436 22.4508L823.116 -545.888L822.127 -547.32L821.133 -548.749L0.321436 22.4508ZM0.00777794 21.3502L994.854 122.742L994.881 122.476L994.908 122.211L0.00777794 21.3502ZM0.552552 20.3731L-633.238 -753.132L-637.04 -750.016L-640.812 -746.863L0.552552 20.3731ZM24.2943 0.919786L-608.962 -773.022L-609.229 -772.804L-609.496 -772.585L24.2943 0.919786ZM29.6595 0.916769L661.92 -773.839L660.629 -774.893L659.334 -775.942L29.6595 0.916769ZM38.9344 8.48581L-593.326 783.242L1038.93 2115.29V8.48581H38.9344ZM44.1207 4.62289L-955.877 2.30716L-955.879 3.46502V4.62289H44.1207ZM44.1207 12.7528H-955.879V487.124L-588.495 787.219L44.1207 12.7528ZM53.4534 20.3761L704.997 -738.235L695.631 -746.279L686.069 -754.09L53.4534 20.3761ZM51.7916 22.7464L-580.766 797.259L-556.766 816.861L-531.599 834.938L51.7916 22.7464ZM44.3849 16.6972L676.943 -757.816L-955.615 -2091.15L-955.615 16.6972H44.3849ZM43.0862 42.5767L781.809 716.586L782.164 716.197L782.519 715.807L43.0862 42.5767ZM30.3638 39.1269H1030.36H30.3638ZM34.8073 40.9844L34.8073 -959.016L34.8073 40.9844ZM41.6335 39.1299L-958.367 39.1299L41.6335 39.1299ZM41.6335 14.4777H1041.63V-460.959L672.902 -761.087L41.6335 14.4777ZM27.9811 3.3654L-610.333 773.141L-606.823 776.052L-603.288 778.93L27.9811 3.3654ZM25.9726 3.3654L658.697 777.742L661.5 775.452L664.287 773.141L25.9726 3.3654ZM12.3725 14.4777L-620.352 -759.899L-987.627 -459.807V14.4777H12.3725ZM12.8512 40.4628L751.574 -633.547L750.607 -634.607L749.636 -635.664L12.8512 40.4628ZM22.0024 16.8781L-977.997 15.5821L-979.295 1016.88L22.0024 1016.88V16.8781ZM31.9514 16.8781V1016.88H1031.95V16.8781H31.9514ZM30.4601 13.3831L707.55 -722.517L707.212 -722.828L706.874 -723.138L30.4601 13.3831ZM28.6717 25.2101V1025.21H29.4884L30.3051 1025.21L28.6717 25.2101ZM14.0674 44V-956C145.588 -956 286.788 -929.803 424.689 -867.39C561.585 -805.431 669.182 -719.622 749.645 -631.433L10.9225 42.5767L-727.8 716.586C-546.817 914.946 -281.868 1044 14.0674 1044V44ZM10.9225 42.5767L748.935 -632.211C925.752 -438.827 1009.62 -195.37 1009.62 39.1269H9.62112H-990.379C-990.379 276.325 -905.642 522.082 -727.09 717.364L10.9225 42.5767ZM9.62112 39.1269H1009.62V16.7002H9.62112H-990.379V39.1269H9.62112ZM9.62112 16.7002L-622.748 -757.967L-630.154 -751.921L2.21439 22.7464L634.583 797.414L641.99 791.368L9.62112 16.7002ZM2.21439 22.7464L-577.844 -791.829C-411.195 -910.499 -172.526 -1000.68 105.575 -971.5L1.21013 23.0389L-103.154 1017.58C175.636 1046.83 414.975 956.454 582.272 837.322L2.21439 22.7464ZM1.21013 23.0389L105.028 -971.557C463.262 -934.164 700.807 -722.957 823.116 -545.888L0.321436 22.4508L-822.473 590.79C-699.673 768.57 -461.535 980.17 -102.608 1017.64L1.21013 23.0389ZM0.321436 22.4508L821.133 -548.749C936.938 -382.337 1022.45 -148.06 994.854 122.742L0.00777794 21.3502L-994.839 -80.0414C-1022.52 191.516 -936.791 426.527 -820.49 593.651L0.321436 22.4508ZM0.00777794 21.3502L994.908 122.211C965.661 410.708 818.277 640.182 641.917 787.609L0.552552 20.3731L-640.812 -746.863C-817.822 -598.893 -965.569 -368.767 -994.893 -79.5104L0.00777794 21.3502ZM0.552552 20.3731L634.343 793.878L658.084 774.425L24.2943 0.919786L-609.496 -772.585L-633.238 -753.132L0.552552 20.3731ZM24.2943 0.919786L657.551 774.862C568.336 847.859 457.763 912.341 327.167 953.652L25.5681 0.217161L-276.031 -953.218C-407.529 -911.621 -518.952 -846.671 -608.962 -773.022L24.2943 0.919786ZM25.5681 0.217161L327.167 953.652C228.415 984.89 128.396 999.591 31.0972 999.992L26.9769 4.07507e-05L22.8565 -999.991C-75.4179 -999.587 -176.376 -984.741 -276.031 -953.218L25.5681 0.217161ZM26.9769 4.07507e-05L31.0972 999.992C-71.7959 1000.42 -176.893 984.876 -279.771 951.552L28.3883 0.217161L336.547 -951.118C232.764 -984.736 126.725 -1000.42 22.8565 -999.991L26.9769 4.07507e-05ZM28.3883 0.217161L-279.771 951.552C-403.842 911.362 -511.231 849.739 -600.015 777.776L29.6595 0.916769L659.334 -775.942C569.761 -848.544 461.525 -910.635 336.547 -951.118L28.3883 0.217161ZM29.6595 0.916769L-602.601 775.673L-593.326 783.242L38.9344 8.48581L671.195 -766.27L661.92 -773.839L29.6595 0.916769ZM38.9344 8.48581H1038.93V4.6259H38.9344H-961.066V8.48581H38.9344ZM38.9344 4.6259H1038.93C1038.93 235.514 957.565 480.263 778.411 676.618L39.6883 2.6085L-699.035 -671.401C-879.194 -473.944 -961.066 -227.85 -961.066 4.6259H38.9344ZM39.6883 2.6085L778.411 676.618C696.707 766.167 588.015 852.263 450.559 914.059C312.363 976.187 171.632 1001.78 41.5262 1001.78L41.5262 1.78223L41.5262 -998.218C-250.296 -998.218 -515.893 -872.127 -699.035 -671.401L39.6883 2.6085ZM41.5262 1.78223L41.5262 1001.78C-88.5944 1001.78 -229.109 976.184 -366.994 914.289C-504.106 852.741 -612.558 767.038 -694.132 677.957L43.3669 2.6085L780.866 -672.74C598.129 -872.294 333.208 -998.218 41.5262 -998.218L41.5262 1.78223ZM43.3669 2.6085L-694.132 677.957C-873.919 481.625 -956.417 235.702 -955.877 2.30716L44.1207 4.62289L1044.12 6.93861C1044.66 -228.041 961.662 -475.306 780.866 -672.74L43.3669 2.6085ZM44.1207 4.62289H-955.879V12.7528H44.1207H1044.12V4.62289H44.1207ZM44.1207 12.7528L-588.495 787.219L-579.162 794.842L53.4534 20.3761L686.069 -754.09L676.736 -761.713L44.1207 12.7528ZM53.4534 20.3761L-598.09 778.987C-771.741 629.845 -908.001 407.145 -939.365 136.44L53.99 21.3502L1047.35 -93.74C1015.89 -365.205 879.275 -588.554 704.997 -738.235L53.4534 20.3761ZM53.99 21.3502L-939.365 136.44C-970.916 -135.875 -887.47 -375.506 -767.597 -548.068L53.6873 22.4508L874.972 592.97C995.336 419.7 1078.98 179.335 1047.35 -93.74L53.99 21.3502ZM53.6873 22.4508L-767.597 -548.068C-645.007 -724.542 -409.65 -932.06 -56.7198 -970.946L52.7986 23.0389L162.317 1017.02C515.94 978.061 751.89 770.151 874.972 592.97L53.6873 22.4508ZM52.7986 23.0389L-56.7198 -970.946C224.231 -1001.9 466.229 -910.803 635.182 -789.446L51.7916 22.7464L-531.599 834.938C-361.996 956.762 -119.327 1048.06 162.317 1017.02L52.7986 23.0389ZM51.7916 22.7464L684.35 -751.767L676.943 -757.816L44.3849 16.6972L-588.173 791.21L-580.766 797.259L51.7916 22.7464ZM44.3849 16.6972H-955.615V39.1299H44.3849H1044.38V16.6972H44.3849ZM44.3849 39.1299H-955.615C-955.615 -195.591 -871.657 -438.104 -696.346 -630.654L43.0862 42.5767L782.519 715.807C959.561 521.355 1044.38 276.544 1044.38 39.1299H44.3849ZM43.0862 42.5767L-695.637 -631.433C-615.173 -719.622 -507.577 -805.431 -370.681 -867.39C-232.78 -929.803 -91.579 -956 39.9414 -956V44V1044C335.877 1044 600.826 914.946 781.809 716.586L43.0862 42.5767ZM39.9414 44V-956H34.8073V44V1044H39.9414V44ZM34.8073 44V-956C166.328 -956 307.528 -929.803 445.429 -867.39C582.325 -805.431 689.922 -719.622 770.385 -631.433L31.6625 42.5767L-707.06 716.586C-526.077 914.946 -261.128 1044 34.8073 1044V44ZM31.6625 42.5767L770.385 -631.433C946.913 -437.956 1030.36 -194.757 1030.36 39.1269L30.3638 39.1269L-969.636 39.1269C-969.636 275.713 -885.32 521.211 -707.06 716.586L31.6625 42.5767ZM30.3638 39.1269H1030.36V30.0802H30.3638H-969.636V39.1269H30.3638ZM30.3638 30.0802H1030.36C1030.36 -180.192 961.962 -433.346 768.611 -645.262L29.8878 28.7473L-708.835 702.757C-901.552 491.536 -969.636 239.27 -969.636 30.0802H30.3638ZM29.8878 28.7473L768.611 -645.262C568.777 -864.282 295.028 -971.774 28.6717 -971.774V28.2256V1028.23C-90.5342 1028.23 -226.548 1006.71 -364.896 947.363C-504.355 887.537 -619.52 800.647 -708.835 702.757L29.8878 28.7473ZM28.6717 28.2256V-971.774H25.2848V28.2256V1028.23H28.6717V28.2256ZM25.2848 28.2256V-971.774C-239.851 -971.774 -514.038 -865.143 -714.657 -645.262L24.0659 28.7473L762.789 702.757C673.105 801.051 557.626 887.965 418.097 947.686C279.768 1006.89 143.984 1028.23 25.2848 1028.23V28.2256ZM24.0659 28.7473L-714.657 -645.262C-908.009 -433.346 -976.41 -180.192 -976.41 30.0802H23.5899H1023.59C1023.59 239.27 955.506 491.536 762.789 702.757L24.0659 28.7473ZM23.5899 30.0802H-976.41V39.1269H23.5899H1023.59V30.0802H23.5899ZM23.5899 39.1269H-976.41C-976.41 -194.757 -892.96 -437.956 -716.432 -631.433L22.2912 42.5767L761.014 716.586C939.274 521.211 1023.59 275.713 1023.59 39.1269H23.5899ZM22.2912 42.5767L-716.432 -631.433C-635.968 -719.622 -528.371 -805.431 -391.476 -867.39C-253.574 -929.803 -112.374 -956 19.1464 -956V44V1044C315.082 1044 580.031 914.946 761.014 716.586L22.2912 42.5767ZM19.1464 44V-956H14.0674V44V1044H19.1464V44ZM14.0674 40.9844V1040.98H19.1464V40.9844V-959.016H14.0674V40.9844ZM19.1464 40.9844V1040.98C285.498 1040.98 559.248 933.496 759.085 714.472L20.3625 40.4628L-718.36 -633.547C-629.044 -731.439 -513.878 -818.328 -374.418 -878.154C-236.071 -937.503 -100.058 -959.016 19.1464 -959.016V40.9844ZM31.8165 26.6334L-707.616 699.864C-883.198 507.016 -966.885 264.38 -966.885 30.0832H33.1152H1033.12C1033.12 -206.911 948.563 -451.848 771.249 -646.597L31.8165 26.6334ZM33.1152 30.0832H-966.885V39.1299H33.1152H1033.12V30.0832H33.1152ZM33.1152 39.1299H-966.885C-966.885 249.397 -898.486 502.553 -705.132 714.472L33.5912 40.4628L772.314 -633.547C965.034 -422.323 1033.12 -170.056 1033.12 39.1299H33.1152ZM33.5912 40.4628L-705.132 714.472C-505.295 933.496 -231.544 1040.98 34.8073 1040.98L34.8073 40.9844L34.8073 -959.016C154.011 -959.016 290.024 -937.503 428.371 -878.154C567.831 -818.328 682.998 -731.439 772.314 -633.547L33.5912 40.4628ZM34.8073 40.9844V1040.98H39.9414V40.9844V-959.016H34.8073V40.9844ZM39.9414 40.9844V1040.98C306.294 1040.98 580.044 933.495 779.88 714.472L41.1575 40.4628L-697.565 -633.547C-608.25 -731.438 -493.084 -818.328 -353.624 -878.154C-215.276 -937.503 -79.2627 -959.016 39.9414 -959.016V40.9844ZM41.1575 40.4628L779.88 714.472C973.235 502.553 1041.63 249.397 1041.63 39.1299L41.6335 39.1299L-958.367 39.1299C-958.367 -170.056 -890.285 -422.323 -697.565 -633.547L41.1575 40.4628ZM41.6335 39.1299H1041.63V14.4777H41.6335H-958.367V39.1299H41.6335ZM41.6335 14.4777L672.902 -761.087L659.25 -772.199L27.9811 3.3654L-603.288 778.93L-589.635 790.042L41.6335 14.4777ZM27.9811 3.3654L666.295 -766.411C471.966 -927.552 240.75 -996.981 26.9769 -996.981V3.01861V1003.02C-186.015 1003.02 -416.561 933.821 -610.333 773.141L27.9811 3.3654ZM26.9769 3.01861V-996.981C-186.798 -996.981 -418.013 -927.552 -612.341 -766.411L25.9726 3.3654L664.287 773.141C470.516 933.82 239.97 1003.02 26.9769 1003.02V3.01861ZM25.9726 3.3654L-606.752 -771.011L-620.352 -759.899L12.3725 14.4777L645.097 788.854L658.697 777.742L25.9726 3.3654ZM12.3725 14.4777H-987.627V39.1299H12.3725H1012.37V14.4777H12.3725ZM12.3725 39.1299H-987.627C-987.627 250.975 -918.228 504.865 -723.934 716.59L12.8512 40.4628L749.636 -635.664C943.292 -424.635 1012.37 -171.634 1012.37 39.1299H12.3725ZM12.8512 40.4628L-725.872 714.472C-526.034 933.496 -252.284 1040.98 14.0674 1040.98V40.9844V-959.016C133.271 -959.016 269.284 -937.503 407.632 -878.154C547.091 -818.328 662.258 -731.439 751.574 -633.547L12.8512 40.4628ZM22.0024 16.8781V1016.88H31.9514V16.8781V-983.122H22.0024V16.8781ZM31.9514 16.8781H1031.95C1031.95 -249.165 925.156 -522.302 707.55 -722.517L30.4601 13.3831L-646.63 749.283C-743.392 660.254 -829.16 545.752 -888.196 407.391C-946.768 270.116 -968.049 135.209 -968.049 16.8781H31.9514ZM30.4601 13.3831L706.874 -723.138C525.394 -889.808 284.23 -987.989 26.9769 -987.989V12.011V1012.01C-227.624 1012.01 -466.466 914.745 -645.954 749.905L30.4601 13.3831ZM26.9769 12.011V-987.989C-230.325 -987.989 -471.834 -889.752 -653.594 -722.517L23.4964 13.3831L700.587 749.283C520.815 914.688 281.626 1012.01 26.9769 1012.01V12.011ZM23.4964 13.3831L-653.594 -722.517C-870.846 -522.626 -977.653 -250.039 -977.997 15.5821L22.0024 16.8781L1022 18.1741C1021.85 136.36 1000.45 271.019 941.89 408.002C882.873 546.066 797.227 660.366 700.587 749.283L23.4964 13.3831ZM31.8165 26.6334L771.249 -646.597C590.14 -845.516 324.331 -975.274 27.0383 -974.789L28.6717 25.2101L30.3051 1025.21C-101.724 1025.42 -243.511 999.256 -381.95 936.598C-519.347 874.413 -627.152 788.241 -707.616 699.864L31.8165 26.6334ZM28.6717 25.2101V-974.79H25.2848V25.2101V1025.21H28.6717V25.2101Z" fill="#CFA35B" mask="url(#path-1-inside-1_285_779)"/>
</svg>
