<svg width="50" height="50" viewBox="0 0 50 50" fill="none" xmlns="http://www.w3.org/2000/svg">
<path d="M37.0834 24.9999C39.7111 24.9995 42.2671 24.1425 44.3639 22.5588C46.4608 20.9751 47.9842 18.751 48.7034 16.2236C49.4225 13.6963 49.2982 11.0033 48.3493 8.55295C47.4003 6.10257 45.6785 4.02831 43.4447 2.64452C41.2108 1.26072 38.5868 0.642826 35.9702 0.884463C33.3537 1.1261 30.8872 2.2141 28.9446 3.98358C27.0019 5.75306 25.6891 8.10757 25.2049 10.6903C24.7208 13.273 25.0917 15.9432 26.2616 18.2961C26.4821 18.7235 26.5397 19.2165 26.4235 19.6833L25.7034 22.373C25.632 22.6393 25.6321 22.9197 25.7035 23.186C25.7748 23.4523 25.915 23.6951 26.11 23.89C26.3049 24.085 26.5477 24.2252 26.814 24.2966C27.0803 24.3679 27.3607 24.368 27.627 24.2967L30.3168 23.5765C30.7835 23.4604 31.2765 23.5179 31.7039 23.7384C33.3756 24.5688 35.2169 25.0006 37.0834 24.9999Z" stroke="#CFA35B" stroke-width="1.5"/>
<path d="M32.25 12.9166H41.9167M37.0833 17.7499V8.08325" stroke="#CFA35B" stroke-width="1.5" stroke-linecap="round"/>
<path opacity="0.5" d="M15.4252 13.6804L16.9937 16.491C18.4074 19.0285 17.8395 22.3538 15.6113 24.5844C15.6113 24.5844 12.9047 27.2886 17.8105 32.192C22.7115 37.093 25.4157 34.3912 25.4157 34.3912C27.6463 32.1606 30.9741 31.5927 33.5092 33.0065L36.3197 34.5773C40.1502 36.7136 40.6021 42.0835 37.2357 45.4523C35.2129 47.4726 32.7334 49.0483 29.9953 49.1498C25.3843 49.3262 17.5519 48.159 9.69533 40.3048C1.84116 32.4482 0.673909 24.6158 0.850325 20.0048C0.954242 17.2667 2.52749 14.7872 4.54783 12.7645C7.91666 9.39805 13.2865 9.84997 15.4228 13.6828L15.4252 13.6804Z" stroke="#D4AB5B" stroke-width="1.5" stroke-linecap="round"/>
</svg>
