<svg width="15" height="19" viewBox="0 0 15 19" fill="none" xmlns="http://www.w3.org/2000/svg">
<path fill-rule="evenodd" clip-rule="evenodd" d="M7.73156 17.6572C8.80979 16.6858 9.80769 15.6299 10.7156 14.4998C12.6281 12.1141 13.7916 9.7618 13.8703 7.67019C13.9015 6.82013 13.7598 5.97256 13.4536 5.1781C13.1475 4.38364 12.6832 3.6586 12.0886 3.04628C11.4939 2.43396 10.7811 1.94693 9.99261 1.61428C9.20414 1.28163 8.35623 1.11018 7.49953 1.11018C6.64283 1.11018 5.79493 1.28163 5.00646 1.61428C4.21799 1.94693 3.50513 2.43396 2.91047 3.04628C2.31582 3.6586 1.85156 4.38364 1.54543 5.1781C1.2393 5.97256 1.09759 6.82013 1.12875 7.67019C1.20844 9.7618 2.37281 12.1141 4.28437 14.4998C5.19231 15.6299 6.19021 16.6858 7.26844 17.6572C7.37219 17.7503 7.44938 17.818 7.5 17.8602L7.73156 17.6572ZM6.80813 18.7417C6.80813 18.7417 0 13.0486 0 7.44678C0 5.47177 0.790176 3.57765 2.1967 2.18111C3.60322 0.78457 5.51088 0 7.5 0C9.48912 0 11.3968 0.78457 12.8033 2.18111C14.2098 3.57765 15 5.47177 15 7.44678C15 13.0486 8.19187 18.7417 8.19187 18.7417C7.81313 19.088 7.18969 19.0842 6.80813 18.7417ZM7.5 10.0532C8.19619 10.0532 8.86387 9.77856 9.35616 9.28977C9.84844 8.80098 10.125 8.13803 10.125 7.44678C10.125 6.75553 9.84844 6.09259 9.35616 5.6038C8.86387 5.11501 8.19619 4.84041 7.5 4.84041C6.80381 4.84041 6.13613 5.11501 5.64384 5.6038C5.15156 6.09259 4.875 6.75553 4.875 7.44678C4.875 8.13803 5.15156 8.80098 5.64384 9.28977C6.13613 9.77856 6.80381 10.0532 7.5 10.0532ZM7.5 11.1702C6.50544 11.1702 5.55161 10.7779 4.84835 10.0796C4.14509 9.38135 3.75 8.43429 3.75 7.44678C3.75 6.45928 4.14509 5.51222 4.84835 4.81395C5.55161 4.11568 6.50544 3.72339 7.5 3.72339C8.49456 3.72339 9.44839 4.11568 10.1517 4.81395C10.8549 5.51222 11.25 6.45928 11.25 7.44678C11.25 8.43429 10.8549 9.38135 10.1517 10.0796C9.44839 10.7779 8.49456 11.1702 7.5 11.1702Z" fill="black"/>
</svg>
