<svg width="46" height="38" viewBox="0 0 46 38" fill="none" xmlns="http://www.w3.org/2000/svg">
<mask id="path-1-inside-1_451_62" fill="white">
<path d="M11.9833 37.4815C10.9349 37.4815 10.0419 37.0773 9.30437 36.269C8.5653 35.4607 8.19577 34.4811 8.19577 33.3303V14.2261L1.88633 19.3765C1.60977 19.5735 1.32461 19.6565 1.03085 19.6257C0.735539 19.5949 0.483193 19.4279 0.273816 19.1248C0.0628764 18.8217 -0.0261872 18.5091 0.00662566 18.1872C0.0394385 17.8635 0.194127 17.5861 0.470693 17.3549L20.6951 0.783521C21.0342 0.50609 21.3959 0.306579 21.7803 0.184989C22.1647 0.0633987 22.5647 0.00174725 22.9803 3.47136e-05C23.3959 -0.00167782 23.7967 0.0599736 24.1826 0.184989C24.5686 0.310004 24.9295 0.508658 25.2655 0.780951L33.1663 7.22865V3.94058C33.1663 3.26413 33.3804 2.69129 33.8085 2.22205C34.2367 1.75282 34.7585 1.5182 35.3742 1.5182C35.9898 1.5182 36.5125 1.75282 36.9421 2.22205C37.3718 2.69129 37.5859 3.26327 37.5843 3.93801V10.8635L45.5344 17.3575C45.8016 17.5869 45.954 17.8635 45.9915 18.1872C46.029 18.5108 45.943 18.8234 45.7336 19.1248C45.5243 19.4262 45.2719 19.5932 44.9766 19.6257C44.6813 19.6582 44.3953 19.5752 44.1188 19.3765L37.8093 14.2235V33.3329C37.8093 34.4803 37.4406 35.459 36.7031 36.269C35.9656 37.0773 35.0726 37.4815 34.0241 37.4815H29.6507C28.6022 37.4815 27.7092 37.0773 26.9717 36.269C26.2342 35.4607 25.8655 34.4811 25.8655 33.3303V25.6239C25.8655 25.1632 25.7303 24.7847 25.46 24.4885C25.1897 24.1922 24.8444 24.0441 24.4241 24.0441H21.5389C21.117 24.0441 20.7709 24.1922 20.5006 24.4885C20.2303 24.7847 20.0951 25.1632 20.0951 25.6239V33.3303C20.0951 34.4811 19.7264 35.4607 18.9888 36.269C18.2513 37.0773 17.3584 37.4815 16.3099 37.4815H11.9833ZM11.9833 34.9127H16.3099C16.7302 34.9127 17.0755 34.7645 17.3459 34.4683C17.6162 34.172 17.7513 33.7935 17.7513 33.3329V25.6264C17.7513 24.4773 18.1201 23.4978 18.8576 22.6877C19.5967 21.8794 20.4904 21.4753 21.5389 21.4753H24.4217C25.4717 21.4753 26.3655 21.8794 27.103 22.6877C27.8405 23.4978 28.2092 24.4773 28.2092 25.6264V33.3329C28.2092 33.7935 28.3444 34.172 28.6147 34.4683C28.885 34.7645 29.2304 34.9127 29.6507 34.9127H34.0241C34.4445 34.9127 34.7898 34.7645 35.0601 34.4683C35.3304 34.172 35.4656 33.7935 35.4656 33.3329V12.3329L23.8358 2.86682C23.5983 2.66988 23.3131 2.57141 22.9803 2.57141C22.6475 2.57141 22.3623 2.66988 22.1248 2.86682L10.5395 12.3329V33.3329C10.5395 33.7935 10.6755 34.172 10.9474 34.4683C11.2177 34.7645 11.563 34.9127 11.9833 34.9127ZM18.7427 14.3776H27.2178C27.2178 13.172 26.7944 12.1796 25.9475 11.4004C25.0991 10.6212 24.11 10.2316 22.9803 10.2316C21.8506 10.2316 20.8623 10.6212 20.0154 11.4004C19.1685 12.1796 18.7443 13.172 18.7427 14.3776ZM17.3459 34.4683C17.6162 34.172 17.7513 33.7935 17.7513 33.3329V25.6264C17.7513 24.4773 18.1201 23.4978 18.8576 22.6877C19.5967 21.8794 20.4904 21.4753 21.5389 21.4753H24.4217C25.4717 21.4753 26.3655 21.8794 27.103 22.6877C26.3655 21.8777 25.4725 21.4735 24.4241 21.4753H21.5389C20.4904 21.4753 19.5967 21.8794 18.8576 22.6877C18.1201 23.4978 17.7513 24.4773 17.7513 25.6264V33.3329C17.7513 33.7935 17.6162 34.172 17.3459 34.4683Z"/>
</mask>
<path d="M11.9833 37.4815C10.9349 37.4815 10.0419 37.0773 9.30437 36.269C8.5653 35.4607 8.19577 34.4811 8.19577 33.3303V14.2261L1.88633 19.3765C1.60977 19.5735 1.32461 19.6565 1.03085 19.6257C0.735539 19.5949 0.483193 19.4279 0.273816 19.1248C0.0628764 18.8217 -0.0261872 18.5091 0.00662566 18.1872C0.0394385 17.8635 0.194127 17.5861 0.470693 17.3549L20.6951 0.783521C21.0342 0.50609 21.3959 0.306579 21.7803 0.184989C22.1647 0.0633987 22.5647 0.00174725 22.9803 3.47136e-05C23.3959 -0.00167782 23.7967 0.0599736 24.1826 0.184989C24.5686 0.310004 24.9295 0.508658 25.2655 0.780951L33.1663 7.22865V3.94058C33.1663 3.26413 33.3804 2.69129 33.8085 2.22205C34.2367 1.75282 34.7585 1.5182 35.3742 1.5182C35.9898 1.5182 36.5125 1.75282 36.9421 2.22205C37.3718 2.69129 37.5859 3.26327 37.5843 3.93801V10.8635L45.5344 17.3575C45.8016 17.5869 45.954 17.8635 45.9915 18.1872C46.029 18.5108 45.943 18.8234 45.7336 19.1248C45.5243 19.4262 45.2719 19.5932 44.9766 19.6257C44.6813 19.6582 44.3953 19.5752 44.1188 19.3765L37.8093 14.2235V33.3329C37.8093 34.4803 37.4406 35.459 36.7031 36.269C35.9656 37.0773 35.0726 37.4815 34.0241 37.4815H29.6507C28.6022 37.4815 27.7092 37.0773 26.9717 36.269C26.2342 35.4607 25.8655 34.4811 25.8655 33.3303V25.6239C25.8655 25.1632 25.7303 24.7847 25.46 24.4885C25.1897 24.1922 24.8444 24.0441 24.4241 24.0441H21.5389C21.117 24.0441 20.7709 24.1922 20.5006 24.4885C20.2303 24.7847 20.0951 25.1632 20.0951 25.6239V33.3303C20.0951 34.4811 19.7264 35.4607 18.9888 36.269C18.2513 37.0773 17.3584 37.4815 16.3099 37.4815H11.9833ZM11.9833 34.9127H16.3099C16.7302 34.9127 17.0755 34.7645 17.3459 34.4683C17.6162 34.172 17.7513 33.7935 17.7513 33.3329V25.6264C17.7513 24.4773 18.1201 23.4978 18.8576 22.6877C19.5967 21.8794 20.4904 21.4753 21.5389 21.4753H24.4217C25.4717 21.4753 26.3655 21.8794 27.103 22.6877C27.8405 23.4978 28.2092 24.4773 28.2092 25.6264V33.3329C28.2092 33.7935 28.3444 34.172 28.6147 34.4683C28.885 34.7645 29.2304 34.9127 29.6507 34.9127H34.0241C34.4445 34.9127 34.7898 34.7645 35.0601 34.4683C35.3304 34.172 35.4656 33.7935 35.4656 33.3329V12.3329L23.8358 2.86682C23.5983 2.66988 23.3131 2.57141 22.9803 2.57141C22.6475 2.57141 22.3623 2.66988 22.1248 2.86682L10.5395 12.3329V33.3329C10.5395 33.7935 10.6755 34.172 10.9474 34.4683C11.2177 34.7645 11.563 34.9127 11.9833 34.9127ZM18.7427 14.3776H27.2178C27.2178 13.172 26.7944 12.1796 25.9475 11.4004C25.0991 10.6212 24.11 10.2316 22.9803 10.2316C21.8506 10.2316 20.8623 10.6212 20.0154 11.4004C19.1685 12.1796 18.7443 13.172 18.7427 14.3776ZM17.3459 34.4683C17.6162 34.172 17.7513 33.7935 17.7513 33.3329V25.6264C17.7513 24.4773 18.1201 23.4978 18.8576 22.6877C19.5967 21.8794 20.4904 21.4753 21.5389 21.4753H24.4217C25.4717 21.4753 26.3655 21.8794 27.103 22.6877C26.3655 21.8777 25.4725 21.4735 24.4241 21.4753H21.5389C20.4904 21.4753 19.5967 21.8794 18.8576 22.6877C18.1201 23.4978 17.7513 24.4773 17.7513 25.6264V33.3329C17.7513 33.7935 17.6162 34.172 17.3459 34.4683Z" fill="#CFA35B"/>
<path d="M18.8576 22.6877L-350.148 -314.706L-350.504 -314.317L-350.859 -313.928L18.8576 22.6877ZM17.3459 34.4683L386.707 371.473C483.496 265.391 517.751 138.657 517.751 33.3329H17.7513H-482.249C-482.249 -71.0697 -448.264 -197.047 -352.016 -302.536L17.3459 34.4683ZM17.7513 33.3329H517.751V25.6264H17.7513H-482.249V33.3329H17.7513ZM17.7513 25.6264H517.751C517.751 142.3 476.06 263.214 388.574 359.303L18.8576 22.6877L-350.859 -313.928C-439.82 -216.218 -482.249 -93.3454 -482.249 25.6264H17.7513ZM18.8576 22.6877L387.864 360.081C347.822 403.875 294.261 446.54 226.098 477.363C157.423 508.418 87.0864 521.475 21.5389 521.475V21.4753V-478.525C-126.818 -478.525 -259.469 -413.882 -350.148 -314.706L18.8576 22.6877ZM21.5389 21.4753V521.475H24.4217V21.4753V-478.525H21.5389V21.4753ZM24.4217 21.4753V521.475C-41.012 521.475 -111.365 508.462 -180.136 477.363C-248.422 446.484 -302.11 403.695 -342.258 359.692L27.103 22.6877L396.464 -314.317C305.503 -414.012 172.589 -478.525 24.4217 -478.525V21.4753ZM9.30437 36.269L748.027 -637.74L747.672 -638.13L747.317 -638.518L9.30437 36.269ZM8.19577 14.2261H1008.2V-2092.96L-624.173 -760.442L8.19577 14.2261ZM1.88633 19.3765L581.944 833.952L608.756 814.859L634.255 794.044L1.88633 19.3765ZM1.03085 19.6257L105.395 -974.913L105.122 -974.942L104.849 -974.971L1.03085 19.6257ZM0.273816 19.1248L823.068 -549.214L822.079 -550.646L821.085 -552.075L0.273816 19.1248ZM0.00662566 18.1872L994.853 119.579L994.88 119.313L994.907 119.048L0.00662566 18.1872ZM0.470693 17.3549L-633.319 -756.15L-637.122 -753.034L-640.894 -749.881L0.470693 17.3549ZM20.6951 0.783521L-612.561 -773.159L-612.828 -772.94L-613.095 -772.722L20.6951 0.783521ZM25.2655 0.780951L657.526 -773.975L656.235 -775.029L654.94 -776.078L25.2655 0.780951ZM33.1663 7.22865L-599.094 781.985L1033.17 2114.03V7.22865H33.1663ZM37.5843 3.93801L-962.413 1.62229L-962.416 2.78015V3.93801H37.5843ZM37.5843 10.8635H-962.416V485.235L-595.031 785.33L37.5843 10.8635ZM45.5344 17.3575L697.078 -741.254L687.712 -749.298L678.15 -757.109L45.5344 17.3575ZM44.1188 19.3765L-588.439 793.89L-564.439 813.491L-539.271 831.569L44.1188 19.3765ZM37.8093 14.2235L670.367 -760.29L-962.191 -2093.63V14.2235H37.8093ZM36.7031 36.269L775.426 710.278L775.781 709.889L776.136 709.5L36.7031 36.269ZM25.8655 33.3303H1025.87H25.8655ZM29.6507 34.9127V-965.087V34.9127ZM35.4656 33.3329H-964.534H35.4656ZM35.4656 12.3329H1035.47V-463.103L666.734 -763.231L35.4656 12.3329ZM23.8358 2.86682L-614.478 772.643L-610.969 775.553L-607.433 778.431L23.8358 2.86682ZM22.1248 2.86682L654.85 777.244L657.652 774.953L660.439 772.643L22.1248 2.86682ZM10.5395 12.3329L-622.185 -762.044L-989.46 -461.952V12.3329H10.5395ZM10.9474 34.4683L749.67 -639.541L748.703 -640.601L747.732 -641.659L10.9474 34.4683ZM18.7427 14.3776L-981.256 13.0816L-982.554 1014.38H18.7427V14.3776ZM27.2178 14.3776V1014.38H1027.22V14.3776H27.2178ZM25.9475 11.4004L703.038 -724.5L702.7 -724.81L702.362 -725.121L25.9475 11.4004ZM24.4241 21.4753V1021.48H25.2408L26.0575 1021.47L24.4241 21.4753ZM11.9833 37.4815V-962.518C143.595 -962.518 284.88 -936.304 422.858 -873.856C559.832 -811.862 667.5 -726 748.027 -637.74L9.30437 36.269L-729.419 710.278C-548.563 908.498 -283.769 1037.48 11.9833 1037.48V37.4815ZM9.30437 36.269L747.317 -638.518C924.262 -444.994 1008.2 -201.366 1008.2 33.3303H8.19577H-991.804C-991.804 270.329 -907.131 515.915 -728.708 711.056L9.30437 36.269ZM8.19577 33.3303H1008.2V14.2261H8.19577H-991.804V33.3303H8.19577ZM8.19577 14.2261L-624.173 -760.442L-630.482 -755.291L1.88633 19.3765L634.255 794.044L640.564 788.894L8.19577 14.2261ZM1.88633 19.3765L-578.172 -795.199C-411.475 -913.903 -172.756 -1004.1 105.395 -974.913L1.03085 19.6257L-103.334 1014.16C175.405 1043.41 414.695 953.05 581.944 833.952L1.88633 19.3765ZM1.03085 19.6257L104.849 -974.971C463.134 -937.572 700.723 -726.336 823.068 -549.214L0.273816 19.1248L-822.521 587.464C-699.757 765.192 -461.663 976.762 -102.787 1014.22L1.03085 19.6257ZM0.273816 19.1248L821.085 -552.075C936.927 -385.61 1022.46 -151.279 994.853 119.579L0.00662566 18.1872L-994.84 -83.2044C-1022.51 188.297 -936.802 423.253 -820.537 590.325L0.273816 19.1248ZM0.00662566 18.1872L994.907 119.048C965.654 407.601 818.244 637.124 641.836 784.591L0.470693 17.3549L-640.894 -749.881C-817.855 -601.952 -965.576 -371.874 -994.894 -82.6734L0.00662566 18.1872ZM0.470693 17.3549L634.261 790.86L654.485 774.289L20.6951 0.783521L-613.095 -772.722L-633.319 -756.15L0.470693 17.3549ZM20.6951 0.783521L653.951 774.726C564.678 847.771 454.042 912.288 323.379 953.62L21.7803 0.184989L-279.819 -953.25C-411.25 -911.674 -522.61 -846.759 -612.561 -773.159L20.6951 0.783521ZM21.7803 0.184989L323.379 953.62C224.56 984.879 124.471 999.59 27.1006 999.992L22.9803 3.47136e-05L18.86 -999.991C-79.3422 -999.587 -180.231 -984.752 -279.819 -953.25L21.7803 0.184989ZM22.9803 3.47136e-05L27.1006 999.992C-75.8648 1000.42 -181.032 984.866 -283.976 951.52L24.1826 0.184989L332.342 -951.15C228.625 -984.746 122.657 -1000.42 18.86 -999.991L22.9803 3.47136e-05ZM24.1826 0.184989L-283.976 951.52C-408.115 911.308 -515.567 849.65 -604.409 777.64L25.2655 0.780951L654.94 -776.078C565.426 -848.633 457.252 -910.688 332.342 -951.15L24.1826 0.184989ZM25.2655 0.780951L-606.995 775.537L-599.094 781.985L33.1663 7.22865L665.426 -767.528L657.526 -773.975L25.2655 0.780951ZM33.1663 7.22865H1033.17V3.94058H33.1663H-966.834V7.22865H33.1663ZM33.1663 3.94058H1033.17C1033.17 234.946 951.76 479.795 772.531 676.231L33.8085 2.22205L-704.914 -671.787C-884.999 -474.412 -966.834 -228.418 -966.834 3.94058H33.1663ZM33.8085 2.22205L772.531 676.231C690.79 765.821 582.057 851.948 444.555 913.764C306.314 975.913 165.534 1001.52 35.3742 1001.52V1.5182V-998.482C-256.341 -998.482 -521.847 -872.432 -704.914 -671.787L33.8085 2.22205ZM35.3742 1.5182V1001.52C-94.8 1001.52 -235.364 975.91 -373.294 913.994C-510.451 852.426 -618.945 766.693 -700.557 677.57L36.9421 2.22205L774.441 -673.126C591.779 -872.598 326.949 -998.482 35.3742 -998.482V1.5182ZM36.9421 2.22205L-700.557 677.57C-880.418 481.157 -962.954 235.135 -962.413 1.62229L37.5843 3.93801L1037.58 6.25374C1038.13 -228.608 955.162 -475.774 774.441 -673.126L36.9421 2.22205ZM37.5843 3.93801H-962.416V10.8635H37.5843H1037.58V3.93801H37.5843ZM37.5843 10.8635L-595.031 785.33L-587.081 791.824L45.5344 17.3575L678.15 -757.109L670.2 -763.603L37.5843 10.8635ZM45.5344 17.3575L-606.009 775.969C-779.707 626.786 -915.993 404.038 -947.364 133.277L45.9915 18.1872L1039.35 -96.903C1007.9 -368.311 871.31 -591.612 697.078 -741.254L45.5344 17.3575ZM45.9915 18.1872L-947.364 133.277C-978.921 -139.094 -895.46 -378.78 -775.551 -551.394L45.7336 19.1248L867.018 589.644C987.346 416.426 1070.98 176.116 1039.35 -96.903L45.9915 18.1872ZM45.7336 19.1248L-775.551 -551.394C-652.924 -727.92 -417.523 -935.467 -64.5418 -974.359L44.9766 19.6257L154.495 1013.61C508.067 974.654 743.973 766.773 867.018 589.644L45.7336 19.1248ZM44.9766 19.6257L-64.5418 -974.359C216.46 -1005.32 458.508 -914.208 627.509 -792.815L44.1188 19.3765L-539.271 831.569C-369.717 953.358 -127.098 1044.64 154.495 1013.61L44.9766 19.6257ZM44.1188 19.3765L676.677 -755.137L670.367 -760.29L37.8093 14.2235L-594.749 788.737L-588.439 793.89L44.1188 19.3765ZM37.8093 14.2235H-962.191V33.3329H37.8093H1037.81V14.2235H37.8093ZM37.8093 33.3329H-962.191C-962.191 -201.587 -878.169 -444.271 -702.73 -636.962L36.7031 36.269L776.136 709.5C953.05 515.189 1037.81 270.548 1037.81 33.3329H37.8093ZM36.7031 36.269L-702.02 -637.74C-621.492 -726 -513.825 -811.862 -376.851 -873.856C-238.872 -936.304 -97.5874 -962.518 34.0241 -962.518V37.4815V1037.48C329.777 1037.48 594.571 908.498 775.426 710.278L36.7031 36.269ZM34.0241 37.4815V-962.518H29.6507V37.4815V1037.48H34.0241V37.4815ZM29.6507 37.4815V-962.518C161.262 -962.518 302.547 -936.304 440.526 -873.856C577.499 -811.862 685.167 -726 765.695 -637.74L26.9717 36.269L-711.751 710.278C-530.896 908.498 -266.102 1037.48 29.6507 1037.48V37.4815ZM26.9717 36.269L765.695 -637.74C942.351 -444.123 1025.87 -200.754 1025.87 33.3303H25.8655H-974.135C-974.135 269.716 -889.882 515.044 -711.751 710.278L26.9717 36.269ZM25.8655 33.3303H1025.87V25.6239H25.8655H-974.135V33.3303H25.8655ZM25.8655 25.6239H1025.87C1025.87 -184.568 957.487 -437.657 764.183 -649.521L25.46 24.4885L-713.263 698.498C-906.027 487.226 -974.135 234.894 -974.135 25.6239H25.8655ZM25.46 24.4885L764.183 -649.521C564.396 -868.49 290.707 -975.956 24.4241 -975.956V24.0441V1024.04C-94.8184 1024.04 -230.866 1002.52 -369.243 943.162C-508.733 883.323 -623.925 796.414 -713.263 698.498L25.46 24.4885ZM24.4241 24.0441V-975.956H21.5389V24.0441V1024.04H24.4241V24.0441ZM21.5389 24.0441V-975.956C-243.523 -975.956 -517.65 -869.35 -718.222 -649.521L20.5006 24.4885L759.223 698.498C669.516 796.818 554.01 883.751 414.451 943.485C276.092 1002.7 140.275 1024.04 21.5389 1024.04V24.0441ZM20.5006 24.4885L-718.222 -649.521C-911.527 -437.657 -979.905 -184.568 -979.905 25.6239H20.0951H1020.1C1020.1 234.894 951.987 487.226 759.223 698.498L20.5006 24.4885ZM20.0951 25.6239H-979.905V33.3303H20.0951H1020.1V25.6239H20.0951ZM20.0951 33.3303H-979.905C-979.905 -200.754 -896.39 -444.123 -719.734 -637.74L18.9888 36.269L757.712 710.278C935.843 515.044 1020.1 269.716 1020.1 33.3303H20.0951ZM18.9888 36.269L-719.734 -637.74C-639.206 -726 -531.539 -811.862 -394.565 -873.856C-256.587 -936.304 -115.302 -962.518 16.3099 -962.518V37.4815V1037.48C312.063 1037.48 576.856 908.498 757.712 710.278L18.9888 36.269ZM16.3099 37.4815V-962.518H11.9833V37.4815V1037.48H16.3099V37.4815ZM11.9833 34.9127V1034.91H16.3099V34.9127V-965.087H11.9833V34.9127ZM16.3099 34.9127V1034.91C282.588 1034.91 556.279 927.45 756.069 708.478L17.3459 34.4683L-721.377 -639.541C-632.037 -737.459 -516.844 -824.368 -377.354 -884.207C-238.977 -943.568 -102.931 -965.087 16.3099 -965.087V34.9127ZM27.103 22.6877L-712.33 695.918C-888.04 502.93 -971.791 260.123 -971.791 25.6264H28.2092H1028.21C1028.21 -211.168 943.721 -455.934 766.536 -650.543L27.103 22.6877ZM28.2092 25.6264H-971.791V33.3329H28.2092H1028.21V25.6264H28.2092ZM28.2092 33.3329H-971.791C-971.791 243.52 -903.415 496.61 -710.108 708.478L28.6147 34.4683L767.338 -639.541C960.104 -428.266 1028.21 -175.933 1028.21 33.3329H28.2092ZM28.6147 34.4683L-710.108 708.478C-510.318 927.45 -236.628 1034.91 29.6507 1034.91V34.9127V-965.087C148.891 -965.087 284.937 -943.568 423.315 -884.207C562.805 -824.368 677.998 -737.459 767.338 -639.541L28.6147 34.4683ZM29.6507 34.9127V1034.91H34.0241V34.9127V-965.087H29.6507V34.9127ZM34.0241 34.9127V1034.91C300.304 1034.91 573.994 927.449 773.783 708.478L35.0601 34.4683L-703.663 -639.541C-614.324 -737.458 -499.131 -824.367 -359.641 -884.206C-221.263 -943.568 -85.2165 -965.087 34.0241 -965.087V34.9127ZM35.0601 34.4683L773.783 708.478C967.09 496.61 1035.47 243.52 1035.47 33.3329H35.4656H-964.534C-964.534 -175.933 -896.429 -428.266 -703.663 -639.541L35.0601 34.4683ZM35.4656 33.3329H1035.47V12.3329H35.4656H-964.534V33.3329H35.4656ZM35.4656 12.3329L666.734 -763.231L655.104 -772.697L23.8358 2.86682L-607.433 778.431L-595.803 787.897L35.4656 12.3329ZM23.8358 2.86682L662.15 -766.909C467.862 -928.017 236.695 -997.429 22.9803 -997.429V2.57141V1002.57C-190.069 1002.57 -420.665 933.357 -614.478 772.643L23.8358 2.86682ZM22.9803 2.57141V-997.429C-190.736 -997.429 -421.902 -928.016 -616.189 -766.909L22.1248 2.86682L660.439 772.643C466.627 933.356 236.031 1002.57 22.9803 1002.57V2.57141ZM22.1248 2.86682L-610.6 -771.51L-622.185 -762.044L10.5395 12.3329L643.264 786.71L654.85 777.244L22.1248 2.86682ZM10.5395 12.3329H-989.46V33.3329H10.5395H1010.54V12.3329H10.5395ZM10.5395 33.3329H-989.46C-989.46 245.098 -920.084 498.922 -725.838 710.595L10.9474 34.4683L747.732 -641.659C941.435 -430.578 1010.54 -177.511 1010.54 33.3329H10.5395ZM10.9474 34.4683L-727.776 708.478C-527.985 927.45 -254.295 1034.91 11.9833 1034.91V34.9127V-965.087C131.224 -965.087 267.27 -943.568 405.647 -884.207C545.137 -824.368 660.33 -737.459 749.67 -639.541L10.9474 34.4683ZM18.7427 14.3776V1014.38H27.2178V14.3776V-985.622H18.7427V14.3776ZM27.2178 14.3776H1027.22C1027.22 -251.456 920.496 -524.42 703.038 -724.5L25.9475 11.4004L-651.143 747.3C-747.978 658.204 -833.801 543.625 -892.874 405.177C-951.483 267.816 -972.782 132.814 -972.782 14.3776H27.2178ZM25.9475 11.4004L702.362 -725.121C521.029 -891.655 280.037 -989.768 22.9803 -989.768V10.2316V1010.23C-231.817 1010.23 -470.831 912.898 -650.467 747.922L25.9475 11.4004ZM22.9803 10.2316V-989.768C-234.125 -989.768 -475.462 -891.599 -657.075 -724.5L20.0154 11.4004L697.106 747.3C517.186 912.841 277.826 1010.23 22.9803 1010.23V10.2316ZM20.0154 11.4004L-657.075 -724.5C-874.18 -524.745 -980.912 -252.33 -981.256 13.0816L18.7427 14.3776L1018.74 15.6737C1018.59 133.965 997.168 268.719 938.575 405.788C879.521 543.939 793.819 658.315 697.106 747.3L20.0154 11.4004ZM27.103 22.6877L766.536 -650.543C585.554 -849.321 319.901 -979.009 22.7907 -978.523L24.4241 21.4753L26.0575 1021.47C-106.063 1021.69 -247.934 995.504 -386.451 932.811C-523.925 870.591 -631.801 784.365 -712.33 695.918L27.103 22.6877ZM24.4241 21.4753V-978.525H21.5389V21.4753V1021.48H24.4241V21.4753Z" fill="#CFA35B" mask="url(#path-1-inside-1_451_62)"/>
</svg>
